<svg xmlns="http://www.w3.org/2000/svg" viewBox="0 0 603 603"><defs><style>.cls-1,.cls-4,.cls-7{fill:#fff;}.cls-1,.cls-3,.cls-4,.cls-5,.cls-6,.cls-7{stroke:#1d1d1b;stroke-miterlimit:10;}.cls-1,.cls-3{stroke-width:3px;}.cls-2,.cls-3,.cls-5,.cls-6{fill:#1d1d1b;}.cls-4,.cls-6{stroke-width:2px;}</style></defs><g id="Calque_8" data-name="Calque 8"><circle class="cls-1" cx="301.5" cy="301.5" r="300"/><circle class="cls-1" cx="301.5" cy="301.5" r="225"/><path class="cls-2" d="M287.38858,310.96243q4.01231,3.65909,8.02457,7.31821-2.99072,3.2981-5.898,6.71722-1.56579-1.33758-3.1315-2.67517a18.72113,18.72113,0,0,0-3.16852,3.439q-1.52284,2.08941-3.09119,3.9443a15.26685,15.26685,0,0,0,3.58579,3.25217,31.39277,31.39277,0,0,1,3.95816,3.144q2.34293-2.959,4.74817-5.83224,2.49375,2.09668,4.98761,4.19336-2.25194,2.69055-4.44861,5.45819a69.84858,69.84858,0,0,0,7.5845,6.40466q4.13466,3.04239,7.88727,6.26486,2.71262-3.42581,5.51733-6.72409-1.68012-1.43532-3.36023-2.87054,2.61476-3.07545,5.30527-6.04209,4.06786,3.70977,8.13568,7.41956-7.94824,8.76531-15.19485,18.52505-5.26273-3.90408-10.52558-7.808-1.98468-1.47231-3.85223-3.03873a36.44024,36.44024,0,0,0-3.72788-2.76867,18.12236,18.12236,0,0,0-3.66372-1.8458,5.87413,5.87413,0,0,0-3.67374-.11709,10.1511,10.1511,0,0,1-.75824-2.07355c-.18045-.72339-.34671-1.444-.50235-2.15744q-6.34515-4.707-12.69028-9.41391-.21057-.15629-.4212-.31244Q277.76212,321.56158,287.38858,310.96243Zm1.17328,34.1489a16.13145,16.13145,0,0,1,4.92822,3.2908,64.74512,64.74512,0,0,0,5.11228,4.28867q4.99058,3.76734,9.98126,7.53472,6.03873-8.01137,12.57059-15.34649-2.76312-2.47143-5.52628-4.94287-1.21765,1.36875-2.41946,2.7605,1.6685,1.44809,3.33694,2.89624-4.16029,4.81764-8.12213,9.91406-4.55246-3.65977-9.42291-7.21784a94.95237,94.95237,0,0,1-9.00385-7.391,7.363,7.363,0,0,1,1.23987-1.64114c.61774-.66217,1.18756-1.31415,1.71112-1.964a7.98144,7.98144,0,0,0,1.11642-1.73093q.33124-.76038-.61447-1.02356a17.69636,17.69636,0,0,0-2.21954,2.14133q-1.09662,1.24951-2.15756,2.66406-1.06014,1.41756-2.13578,2.95249a29.45062,29.45062,0,0,1-2.164,2.75622,2.96245,2.96245,0,0,0,1.86664.063A3.63431,3.63431,0,0,1,288.56186,345.11133Z" transform="translate(-198.5 -198.5)"/><path class="cls-2" d="M298.90237,298.8736q15.04156,15.41436,30.083,30.82876,2.92864-2.87562,5.932-5.63165a3.39988,3.39988,0,0,0-1.21582-1.73117,10.33279,10.33279,0,0,1-1.63095-1.65674q2.99248-2.74255,6.05472-5.3685,3.62274,4.247,7.24548,8.494-8.83722,7.57965-17.05707,16.17535-4.80758-4.61805-9.61529-9.23617-2.37672-2.28286-4.68589-4.9624a18.37655,18.37655,0,0,0-4.7138-4.06669,3.66758,3.66758,0,0,0-2.08533-.57836q-1.19541.01125-2.26852-.05057a5.809,5.809,0,0,0-.93766-3.97071,20.59428,20.59428,0,0,0-3.15713-3.79727q-1.944-1.86987-4.16483-3.71921a33.95622,33.95622,0,0,1-3.86258-3.71032c-.25152-.24167-.32251-.45719-.21222-.64456Q295.71738,302.00044,298.90237,298.8736Zm11.58384,20.7489a19.4825,19.4825,0,0,1,4.42874,3.93274q2.15721,2.51266,4.46209,4.76007,4.49886,4.39869,8.99772,8.7973,6.74043-6.93659,13.90423-13.203l-4.77222-5.4812q-1.27382,1.11534-2.5353,2.25119,1.47408,1.64676,2.94812,3.29339a54.60452,54.60452,0,0,0-4.7471,4.39157,50.57446,50.57446,0,0,1-4.5691,4.24747q-8.87471-8.92291-17.74939-17.84573-2.04318,2.045-4.05157,4.14367a4.13062,4.13062,0,0,0,1.87881.3144A3.22171,3.22171,0,0,1,310.48621,319.6225Z" transform="translate(-198.5 -198.5)"/><path class="cls-2" d="M320.35049,279.83569a282.11341,282.11341,0,0,1,38.07276-25.71035,28.61947,28.61947,0,0,1,2.73263,4.654q1.26051,2.6433,2.60526,5.02618a24.82961,24.82961,0,0,0,2.87976,4.142,6.34551,6.34551,0,0,0,3.58142,2.16836,3.35436,3.35436,0,0,1-.13138,2.17151,3.8396,3.8396,0,0,0-.15994,2.27884,12.35136,12.35136,0,0,0,1.09378,2.7818q.75252,1.427,1.68,2.88095.92565,1.45881,1.92637,2.95755.999,1.50221,1.80761,2.93936,3.217,5.71427,6.434,11.4285-3.26262,1.83544-6.477,3.78214-11.15922-18.432-22.31845-36.864a21.88755,21.88755,0,0,0-3.96789,2.22791q-2.11917,1.46531-4.06528,2.65054l23.62354,36.21936q-3.05407,1.99539-6.05774,4.09491-12.36438-17.736-24.72882-35.47217-3.75541,2.62542-7.44031,5.38813,6.04815,8.76534,12.68594,17.3688,6.62251,8.61608,13.05563,17.37354-2.9787,2.23709-5.9,4.58038-4.09109-5.12357-8.18216-10.247-1.5894-1.99059-3.02591-4.00925a39.96733,39.96733,0,0,0-2.94369-3.69064,15.73289,15.73289,0,0,0-3.13736-2.71759,6.49236,6.49236,0,0,0-3.501-1.06577,3.21855,3.21855,0,0,1-.1853-2.21661,4.42173,4.42173,0,0,0-.1583-2.52023,11.71851,11.71851,0,0,0-1.89819-3.08826q-1.254-1.49139-2.70758-2.91959-1.45711-1.42464-2.77664-2.91259a17.02835,17.02835,0,0,1-2.20276-3.08368C320.346,280.16016,320.27316,279.96136,320.35049,279.83569Zm23.64975,26.47763q3.83873,4.89345,7.67756,9.78684,1.27871-1.00758,2.56829-1.9953-8.54365-11.20152-17.08725-22.40311-2.35239,1.80166-4.6723,3.66275a6.20823,6.20823,0,0,1,3.15811,1.22058A19.00158,19.00158,0,0,1,338.486,299.21a41.22273,41.22273,0,0,1,2.7414,3.421Q342.566,304.48722,344.00024,306.31332Zm4.54865-22.225q7.81032,11.40948,15.62054,22.81891,1.29407-.88806,2.59745-1.75715l-15.61069-23.45919a4.05548,4.05548,0,0,1-.8053.58386c-.35568.20941-.69455.40936-1.02258.6012a2.73255,2.73255,0,0,0-.74222.59567A.47247.47247,0,0,0,348.54889,284.08829Zm14.34048-9.78137q3.1551,6.05759,6.93741,12.1362,3.77249,6.08568,7.291,12.18774,1.37383-.81615,2.7565-1.61224-6.19071-10.74765-12.38144-21.49543a7.2109,7.2109,0,0,1,.16708-1.95318,5.17884,5.17884,0,0,0,.024-2.03864Q365.275,272.89222,362.88937,274.30692Z" transform="translate(-198.5 -198.5)"/><path class="cls-2" d="M365.96616,250.11542q11.86848-6.21188,24.18219-11.23908a29.52394,29.52394,0,0,1,2.15506,4.98877q.913,2.7432,1.95742,5.27121a25.1138,25.1138,0,0,0,2.34552,4.46572,6.00588,6.00588,0,0,0,3.2388,2.53251,7.23643,7.23643,0,0,1-.385,2.13236,10.15349,10.15349,0,0,0-.48129,2.096q5.01324,12.19845,10.02658,24.397-3.35238,1.37035-6.66943,2.84713-5.38427-12.0401-10.7685-24.08026-3.81073,1.69693-7.57611,3.52021c1.57859,3.95358,3.40152,7.91531,5.43955,11.89611q3.05484,5.97213,5.86465,11.93976-3.2752,1.59045-6.50937,3.28739-3.08646-5.87086-6.17294-11.7417-1.60377-3.05078-2.94595-6.28263a19.15286,19.15286,0,0,0-3.15692-5.32583,3.4563,3.4563,0,0,0-1.64069-1.1261,8.49328,8.49328,0,0,1-1.82761-.85294,7.20653,7.20653,0,0,0-.12329-4.3457,29.65823,29.65823,0,0,0-2.00924-4.74356q-1.27113-2.4223-2.76926-4.85256A19.03092,19.03092,0,0,1,365.96616,250.11542Zm18.11129,30.37036q2.8635,5.5643,5.7269,11.12863,1.48628-.76319,2.98142-1.5043-2.86167-5.94132-6.03345-11.93906a131.38,131.38,0,0,1-5.60889-11.89966q5.8148-2.87727,11.741-5.45309,5.30928,12.15477,10.61847,24.30963,1.52353-.66247,3.05456-1.30273-2.42463-5.76834-4.84936-11.53663-.89992-2.14037-1.88171-4.24865-.98269-2.10618-1.74216-4.02314a15.83854,15.83854,0,0,1-1.00162-3.68231,6.13081,6.13081,0,0,1,.35727-3.22851q-11.36792,4.65609-22.35471,10.39929a6.69212,6.69212,0,0,1,2.76883,1.89749,18.07533,18.07533,0,0,1,2.24051,3.14591q1.0221,1.79254,1.9874,3.8652Q383.04811,278.48853,384.07745,280.48578Zm-7.61932-28.27655q2.19887,4.5144,4.3978,9.02875,3.98433-1.93484,8.01944-3.73133-2.04982-4.58374-4.09964-9.16748Q380.59117,250.2025,376.45813,252.20923Z" transform="translate(-198.5 -198.5)"/><path class="cls-2" d="M398.92,235.37991q12.38613-4.58953,25.09235-8.00291a30.21151,30.21151,0,0,1,1.52695,5.25159q.57531,2.871,1.30658,5.54449a21.49364,21.49364,0,0,0,1.86667,4.73468,5.91466,5.91466,0,0,0,3.043,2.80251,6.03817,6.03817,0,0,0-1.14548,3.35949,16.207,16.207,0,0,0,.3674,4.128q.45878,2.20443,1.22412,4.67444.7614,2.47206,1.429,4.92984,1.71758,6.32584,3.435,12.65155-10.60413,2.852-20.96267,6.69782-2.337-6.24564-4.67383-12.4914-.57733-1.54293-1.0715-3.23883-.49325-1.69459-.99744-3.30685-.50665-1.60964-1.09525-3.06949a12.62289,12.62289,0,0,0-1.40487-2.59616,3.336,3.336,0,0,0-1.6464-1.38413,6.5545,6.5545,0,0,1-1.86431-1.13656,6.02046,6.02046,0,0,0,.66052-3.894,23.78683,23.78683,0,0,0-1.191-4.7929q-.90055-2.544-2.09-5.1788a36.18154,36.18154,0,0,1-1.87756-5.018C398.72891,235.71758,398.75107,235.49562,398.92,235.37991Zm14.05014,32.43747q2.15653,5.91271,4.313,11.82544,8.55277-3.09814,17.28687-5.52609-1.681-5.98632-3.36176-11.97272-.628-2.23494-1.33993-4.44806-.71517-2.21071-1.19626-4.2548a19.94447,19.94447,0,0,1-.552-3.81212,5.84513,5.84513,0,0,1,.69937-3.14261q-2.62074.7087-5.22913,1.47131,3.582,12.14352,7.1641,24.28708a50.32434,50.32434,0,0,0-5.8635,1.79553,44.14542,44.14542,0,0,1-5.63718,1.72361q-4.15717-11.88121-8.31442-23.76252-2.57414.8941-5.13269,1.84215a6.34129,6.34129,0,0,1,2.43778,2.21816,19.97225,19.97225,0,0,1,1.76858,3.38305q.78886,1.90764,1.48783,4.08371Q412.19838,265.70732,412.97018,267.81738Zm-3.80908-28.512q5.786,17.026,11.572,34.052,3.75138-1.26526,7.53577-2.4057-5.30607-17.454-10.61209-34.9081-4.25788,1.28337-8.48071,2.70412C408.93158,238.83008,408.92548,239.01669,409.1611,239.30534Z" transform="translate(-198.5 -198.5)"/><path class="cls-2" d="M457.066,240.83859l-.02359-.14757a6.4896,6.4896,0,0,1,1.128-1.99375,3.6805,3.6805,0,0,0,.80759-2.39409,18.96024,18.96024,0,0,0-.30127-3.58972q-.33481-1.91728-.77991-3.93468-.44581-2.01485-.84479-4.00093a18.05728,18.05728,0,0,1-.37347-3.80631,37.43509,37.43509,0,0,0,4.42786-.62117,14.36131,14.36131,0,0,1,4.07208-.2836,18.18491,18.18491,0,0,1,.64581,3.77q.1425,2.01888.24146,4.04383.09732,2.0244.23806,3.96871a13.39176,13.39176,0,0,0,.70642,3.53646,3.86328,3.86328,0,0,0,1.544,2.04529,3.79456,3.79456,0,0,1,1.48129,1.68112,8.531,8.531,0,0,1-1.14978,2.01138,4.66512,4.66512,0,0,0-.933,2.14427,22.96047,22.96047,0,0,0,.472,6.16561q.6703,3.35328,1.06629,6.699.77352,6.46911,1.54709,12.93829a20.2282,20.2282,0,0,0-3.58686.45108,11.52381,11.52381,0,0,1-3.45224.25925q-.94966-6.33238-1.89947-12.6648-.49965-3.33379-.72278-6.89607a19.42637,19.42637,0,0,0-1.22131-6.06624,3.48111,3.48111,0,0,0-1.41373-1.75584A6.85041,6.85041,0,0,1,457.066,240.83859Zm6.80643,14.73528q.86818,6.11766,1.73639,12.2354,1.54156-.21616,3.08541-.41227-1.5909-12.36762-3.18173-24.7353a16.30677,16.30677,0,0,1,.93262-1.66371,8.89493,8.89493,0,0,0,.84579-1.72432q-3.86247.45879-7.713,1.02928a6.65389,6.65389,0,0,1,2.09137,2.64862,16.1979,16.1979,0,0,1,1.117,3.69931q.38,2.06507.5689,4.34445Q463.54364,253.27655,463.87241,255.57387Z" transform="translate(-198.5 -198.5)"/><path class="cls-2" d="M483.51968,217.89111a6.855,6.855,0,0,0,.01175,2.88645,4.5491,4.5491,0,0,0,1.02637,1.933,8.94069,8.94069,0,0,0,1.661,1.41951q.94194.63158,2.02338,1.339,1.37805.99653,2.54,1.74819,1.16276.75224,2.21926,1.55343-.12519-5.61483-.2503-11.22966,4.27373-.094,8.54874-.06219a29.30346,29.30346,0,0,1,.055,5.39218q-.21588,2.91775-.23346,5.65173a23.71671,23.71671,0,0,0,.47449,5.05867,6.24054,6.24054,0,0,0,2.02575,3.62085,15.52562,15.52562,0,0,1-1.21191,1.77963q-.64806.817-1.28555,1.78533-.10007,13.254-.2,26.508-3.53169-.02623-7.06332.05142-.24279-10.89285-.48563-21.78567a35.58681,35.58681,0,0,1,.14-3.82325,8.18775,8.18775,0,0,0-.30188-3.43962,2.55108,2.55108,0,0,0-.70523-.88228,13.36641,13.36641,0,0,0-1.21625-.90335q-.70261-.46625-1.4072-.85458a5.38709,5.38709,0,0,1-1.08923-.74846q-1.14468-.92853-2.16238-1.78346a8.51242,8.51242,0,0,0-2.35846-1.38172q.97933,17.94583,1.9588,35.89161-3.56781.19216-7.12985.49069-.55431-6.529-1.10868-13.05811-.20919-2.46253-.28781-4.93579a41.85126,41.85126,0,0,0-.39673-4.70128,19.99073,19.99073,0,0,0-.97323-4.01353,6.3884,6.3884,0,0,0-2.13831-2.93015,7.29,7.29,0,0,0,1.644-3.83,22.1692,22.1692,0,0,0,.0991-4.89308q-.22079-2.6115-.60242-5.3985a40.35378,40.35378,0,0,1-.39835-5.26466c-.02923-.34744.05219-.55521.24381-.621Q479.34855,218.11578,483.51968,217.89111Zm-4.72378,23.04406a21.32583,21.32583,0,0,1,.72574,5.95359q-.00816,3.37949.244,6.5905.48483,6.27157.96967,12.54314,1.63317-.12461,3.26758-.22711-.89259-14.05019-1.78494-28.10033a26.49236,26.49236,0,0,1-2.9715.16554,8.00122,8.00122,0,0,0-2.67706.398,6.697,6.697,0,0,0,1.25125,1.28821A2.793,2.793,0,0,1,478.7959,240.93517Zm16.59054-3.744c-.24252,4.54692-.253,9.204-.06433,13.9682q.28129,7.14957.29648,14.18762,1.637-.02379,3.27414-.02548-.00645-6.29-.01294-12.58006-.00219-2.247-.093-4.56825-.09159-2.32024-.05105-4.4179a16.19757,16.19757,0,0,1,.493-3.81962,5.67319,5.67319,0,0,1,1.55667-2.7655Q498.086,237.1538,495.38644,237.19116Z" transform="translate(-198.5 -198.5)"/><path class="cls-2" d="M536.86884,220.00827a28.90368,28.90368,0,0,1-.61005,5.32095q-.57421,2.834-.9762,5.5369a23.2284,23.2284,0,0,0-.24359,5.02927,6.609,6.609,0,0,0,1.42493,3.85919,6.12715,6.12715,0,0,0-2.07465,2.70292,18.11509,18.11509,0,0,0-1.12,3.96907q-.38361,2.21622-.61963,4.67742-.23951,2.46108-.56336,4.91136-.87278,6.57042-1.74542,13.14093a239.82155,239.82155,0,0,0-24.13586-1.933q.08935-2.99433.17868-5.98859c.06594-.39661.39218-.53778.972-.41892a3.15932,3.15932,0,0,0,1.37589.04972,22.75894,22.75894,0,0,1,.02035-4.83292q.27-2.57535.5488-5.18674.27855-2.61153.47195-5.11514a16.08,16.08,0,0,0-.26187-4.61957,3.32306,3.32306,0,0,0-.96991-1.90921,5.3481,5.3481,0,0,1-1.17584-1.68686,2.49145,2.49145,0,0,1,1.11411-1.76171,3.38136,3.38136,0,0,0,1.31793-1.9003,8.61227,8.61227,0,0,0,.36786-2.19623,21.08884,21.08884,0,0,0-.044-2.40013q-.09261-1.24077-.13928-2.479a10.22807,10.22807,0,0,1,.19034-2.42806.71457.71457,0,0,0-.5669-.24627c-.25589-.00943-.5278-.0065-.81741.00912-.288.0155-.56131.01856-.8172.01051-.25586-.00795-.41382-.08763-.47244-.239a13.56087,13.56087,0,0,0,.096-3.21832,6.2627,6.2627,0,0,1,.38317-2.986Q522.46234,218.1208,536.86884,220.00827Zm-25.8628,31.5853q-.25849,5.49789-.51687,10.99582-1.07671-.04995-2.15375-.09043-.057,1.49643-.11395,2.993,10.14455.38118,20.24173,1.614.76812-6.20618,1.53607-12.41237.28546-2.30309.48248-4.61858.1973-2.31372.53656-4.34829a17.75638,17.75638,0,0,1,1.00275-3.6868,6.18934,6.18934,0,0,1,1.89959-2.62778q-2.81643-.36564-5.639-.67175-.78846,6.31839-1.34644,12.66006c-.37842,4.22832-.93628,8.33478-1.64886,12.32581a46.43893,46.43893,0,0,0-5.82013-.555,40.88642,40.88642,0,0,1-5.65662-.5549q.75861-12.48309,1.517-24.96627-2.83264-.16989-5.66815-.28026a6.19356,6.19356,0,0,1,1.43264,2.75758,14.89705,14.89705,0,0,1,.38,3.46631q.00082,1.87425-.18595,3.92729Q511.09956,249.57424,511.006,251.59357Zm7.57105-26.34149q-1.25,17.92968-2.5,35.85937,3.95828.27233,7.908.67227,1.8565-18.10347,3.71307-36.20706-4.39636-.44515-8.80328-.75285c-.19147-.01343-.29.031-.297.13014C518.591,225.0542,518.58429,225.15366,518.57709,225.25208Z" transform="translate(-198.5 -198.5)"/><path class="cls-2" d="M545.83521,221.25261q4.27569.69769,8.53259,1.52409-4.1488,21.1307-8.29761,42.26139,3.78186.73434,7.54334,1.58813c1.8468-6.80081,3.54882-13.737,5.05657-20.82028q2.262-10.62373,4.767-21.11664,4.18452.953,8.3443,2.03189a29.18207,29.18207,0,0,1-1.27344,5.24175q-.93,2.77576-1.61859,5.4227a25.81624,25.81624,0,0,0-.82782,5.00936,5.83816,5.83816,0,0,0,1.12952,4.01966,6.08834,6.08834,0,0,0-2.53577,2.38814,17.89981,17.89981,0,0,0-1.69342,3.77761q-.70019,2.14051-1.24725,4.59052-.55188,2.45147-1.1767,4.84192-.91113,3.47877-1.71594,6.7135-.80356,3.23551-1.66248,6.18536-10.70452-2.77661-21.59857-4.54455,1.08133-6.57733,2.16272-13.15467.55875-3.39882,1.43482-6.824a19.71616,19.71616,0,0,0,.70367-6.18322,3.41232,3.41232,0,0,0-.69775-1.93317,11.3125,11.3125,0,0,1-1.097-1.83879,5.34881,5.34881,0,0,0,2.53406-3.01257,24.69364,24.69364,0,0,0,1.26215-4.80318q.43807-2.66137.71557-5.53691a28.9404,28.9404,0,0,1,.9646-5.26889C545.46979,221.44656,545.56757,221.25958,545.83521,221.25261Zm-1.7287,22.7188a21.2908,21.2908,0,0,1-.75946,5.94947q-.83955,3.27493-1.38428,6.44988-1.07181,6.19921-2.1435,12.39841,8.97648,1.534,17.84089,3.75036,1.54174-6.10038,3.08361-12.2008.55125-2.1791,1.0337-4.45217.48248-2.27181,1.03759-4.29606a16.1548,16.1548,0,0,1,1.42054-3.58277,5.683,5.683,0,0,1,2.19793-2.3q-2.717-.70089-5.4461-1.344-1.65418,6.15277-2.96741,12.46124c-.88171,4.20536-1.93713,8.23972-3.14,12.11158q-5.62838-1.32053-11.306-2.3703,2.32763-12.442,4.65527-24.88407a26.66013,26.66013,0,0,1-2.92871-.56262,8.02956,8.02956,0,0,0-2.69861-.26511,6.67006,6.67006,0,0,0,.8985,1.55338A2.78118,2.78118,0,0,1,544.10651,243.97141Z" transform="translate(-198.5 -198.5)"/><path class="cls-2" d="M606.21887,238.024q-2.01443,5.005-4.02881,10.00991-3.91187-1.56556-7.86206-3.00715.69782-1.899,1.39563-3.798a20.832,20.832,0,0,0-4.091-1.65576q-2.37222-.70413-4.46314-1.46723-1.55373,4.69449-3.1076,9.389a14.17493,14.17493,0,0,0,3.59631,1.605q2.14152.66034,4.35962,1.26592,2.21586.60759,4.30274,1.32482a11.98377,11.98377,0,0,1,3.3977,1.73073,1.98234,1.98234,0,0,1,.83173.93933,5.89023,5.89023,0,0,1,.28082,1.04384q.08953.52064.17584,1.04268a1.69038,1.69038,0,0,0,.51563.94095,5.05222,5.05222,0,0,1-2.13727,1.31052,4.14236,4.14236,0,0,0-2.03528,1.36145,12.39475,12.39475,0,0,0-1.46814,2.55987q-.63061,1.4438-1.17084,3.0427-.546,1.597-1.09344,3.31552-.54748,1.718-1.16364,3.24661-2.42019,6.013-4.84033,12.026-10.30389-4.12367-20.90094-7.246,1.592-5.3497,3.18408-10.69943,3.61249,1.06572,7.19709,2.24273-.671,2.02721-1.342,4.05445a13.26779,13.26779,0,0,0,3.572,1.40234,22.73391,22.73391,0,0,1,3.8656,1.33469q3.41143-9.28372,6.82281-18.56732-7.6691-2.79912-15.47314-5.10891a3.52753,3.52753,0,0,1-.93182-1.99067,4.70238,4.70238,0,0,0-.82178-2.1075q.86535-.68781,1.75293-1.40557.88431-.71891,1.79028-1.46755,2.21164-7.4318,4.42328-14.86365.08551-.287.17084-.574Q593.73267,233.03318,606.21887,238.024Zm-30.31042,11.9359q8.55569,2.56254,16.95721,5.71019-4.19274,11.11173-8.38537,22.2234a51.597,51.597,0,0,0-5.86383-2.112,44.15734,44.15734,0,0,1-5.54444-1.99813q.67548-2.1043,1.35114-4.20859-1.5402-.49041-3.08539-.96021-1.08718,3.54534-2.1742,7.09067,8.67691,2.6381,17.17334,5.94638,2.229-5.6856,4.458-11.37115.90253-2.302,1.69446-4.56668a44.51944,44.51944,0,0,1,1.68188-4.16993,17.498,17.498,0,0,1,1.99213-3.32464,5.36458,5.36458,0,0,1,2.69727-1.91321q-11.61356-4.64781-23.558-8.16712a2.34259,2.34259,0,0,0,.23926.96952A7.2249,7.2249,0,0,1,575.90845,249.9599Z" transform="translate(-198.5 -198.5)"/><path class="cls-2" d="M637.03754,252.5625q-1.58542,2.89149-3.17072,5.783-3.74853-2.05293-7.54761-3.983-.95855,1.4466-1.9411,3.17416a24.31658,24.31658,0,0,0-1.62994,3.41748,13.43072,13.43072,0,0,0-.8233,3.28107,4.60838,4.60838,0,0,0,.60253,2.92386q-1.033.56217-2.01879,1.06582-.98988.50168-2.006,1.07962-5.978,11.75762-11.95593,23.51517-3.32364-1.68581-6.69-3.26047,2.83457-6.03722,5.66919-12.07443,1.40139-2.98416,3.18194-6.0401a19.478,19.478,0,0,0,2.36011-5.76361,4.25489,4.25489,0,0,0-.19427-2.19769,8.55493,8.55493,0,0,1-.47174-2.07331,4.97462,4.97462,0,0,0,2.5595-1.41946,12.93148,12.93148,0,0,0,1.96467-2.63919,35.36625,35.36625,0,0,0,1.66387-3.31732q.78159-1.785,1.58057-3.48033a20.74741,20.74741,0,0,0-3.91321-1.99947q-2.27178-.89525-4.299-1.84373a15.01931,15.01931,0,0,0,1.34845-3.13161,7.12108,7.12108,0,0,1,1.53369-2.80757Q625.15863,246.06545,637.03754,252.5625Zm-29.17908,24.69867q-2.72085,5.6764-5.44183,11.35275,1.50384.71832,2.99878,1.45889,5.56668-11.20889,11.13317-22.41784.86179-.49242,1.73786-.89343a12.09145,12.09145,0,0,0,1.66516-.92344q-3.5399-1.79085-7.12268-3.46987a6.68874,6.68874,0,0,1,.17139,3.31378,15.98561,15.98561,0,0,1-1.18061,3.62948q-.85245,1.879-1.92157,3.89963Q608.82815,275.23471,607.85846,277.26117Z" transform="translate(-198.5 -198.5)"/><path class="cls-2" d="M665.41736,270.37286q-6.62549,9.312-13.251,18.624c-.11566.16256-.24042.22793-.36975.19607a1.42925,1.42925,0,0,1-.46448-.238,5.55048,5.55048,0,0,1-.514-.41044,1.64132,1.64132,0,0,0-.52009-.31955Q642.689,299.09,635.08014,309.9552q-3.03369-2.13066-6.1203-4.15491,7.22524-11.03517,14.4508-22.07031a8.90574,8.90574,0,0,0-2.57745-1.93567,32.71493,32.71493,0,0,1-3.07233-1.84244q-6.97768,11.28154-13.95568,22.56314-3.19923-1.98038-6.44837-3.84945,3.36456-5.84615,6.72925-11.69229a67.14021,67.14021,0,0,1,3.79-5.8599,17.38669,17.38669,0,0,0,2.82672-5.63672,3.12011,3.12011,0,0,0-.02716-1.91568,5.13736,5.13736,0,0,1-.23883-1.9458,10.97062,10.97062,0,0,1,1.71771-.83481,12.06764,12.06764,0,0,0,1.726-.825q4.01889-6.983,8.03778-13.96586.26139-.45351.56134-.368Q654.22522,262.39576,665.41736,270.37286Zm-32.6,5.89844a16.67554,16.67554,0,0,1-1.18335,2.65106q-.74093,1.34848-1.59662,2.71317-.858,1.36651-1.8269,2.75119-.96954,1.38624-1.76581,2.74417-3.186,5.42935-6.37213,10.85873,1.44973.85084,2.88971,1.72364,6.89375-11.37735,13.78729-22.75458,4.92105,2.98311,9.73407,6.19916-7.38116,11.0668-14.76251,22.13348,1.33769.894,2.66541,1.808,7.48717-10.90406,14.97406-21.80807a4.38172,4.38172,0,0,1,.68408.33578,7.81125,7.81125,0,0,0,.76159.39249.75138.75138,0,0,0,.597.05118c.164-.06873.28192-.32031.35608-.75757a46.97008,46.97008,0,0,0-4.20563-3.33255q-2.3595-1.66878-4.88623-3.23816-2.52777-1.567-5.08124-3.07318-2.55486-1.5033-4.794-2.88116a3.02076,3.02076,0,0,0,.01666,1.74285A2.96836,2.96836,0,0,1,632.81738,276.2713Zm13.73487-10.53308q-2.66116,4.30228-5.32215,8.60464,3.76758,2.33222,7.47156,4.79984,2.801-4.21248,5.602-8.4249Q650.46164,268.15776,646.55225,265.73822Z" transform="translate(-198.5 -198.5)"/><path class="cls-2" d="M656.2381,288.51709l.08807-.12082a6.50489,6.50489,0,0,1,2.25611-.5726,3.64115,3.64115,0,0,0,2.30462-1.08859,18.2314,18.2314,0,0,0,2.34418-2.73889q1.12188-1.59183,2.237-3.33286,1.10925-1.74178,2.23645-3.42691a17.3767,17.3767,0,0,1,2.4436-2.9454,41.29872,41.29872,0,0,0,3.71,2.81958,15.5988,15.5988,0,0,1,3.21283,2.80865,17.49218,17.49218,0,0,1-2.21771,3.11981q-1.33923,1.51918-2.71356,3.01166-1.3754,1.49052-2.66138,2.95737a12.82433,12.82433,0,0,0-2.00482,3.0018,3.83628,3.83628,0,0,0-.32117,2.57556,3.8062,3.8062,0,0,1-.10559,2.27618,8.5305,8.5305,0,0,1-2.28918.5567,4.60989,4.60989,0,0,0-2.22229.8125,21.96206,21.96206,0,0,0-4.05994,4.66926q-1.90173,2.846-3.99982,5.48422-4.05294,5.10585-8.106,10.21164a21.84559,21.84559,0,0,0-2.97284-2.33173,12.554,12.554,0,0,1-2.73242-2.35647q3.82525-5.13974,7.65027-10.27952,2.01425-2.70565,4.39514-5.36874a18.69426,18.69426,0,0,0,3.43487-5.15225,3.46447,3.46447,0,0,0,.21411-2.26782A6.884,6.884,0,0,1,656.2381,288.51709Zm-5.51422,15.33105q-3.73179,4.9293-7.46369,9.85849,1.29173.98172,2.57239,1.98353,7.6657-9.84412,15.33124-19.68815a16.46062,16.46062,0,0,1,1.87848-.47753,8.898,8.898,0,0,0,1.85907-.58237q-3.18476-2.53625-6.43054-4.96057a6.60917,6.60917,0,0,1-.351,3.39364,15.54225,15.54225,0,0,1-1.81994,3.41587,42.29833,42.29833,0,0,1-2.68525,3.46545Q652.12571,301.99636,650.72388,303.84814Z" transform="translate(-198.5 -198.5)"/><path class="cls-2" d="M705.39362,305.0705q-3.90811,3.77078-7.81635,7.5415-3.06153-3.19241-6.20135-6.26376,1.43591-1.47688,2.87182-2.95377a17.86707,17.86707,0,0,0-3.12579-3.32037q-1.92334-1.61316-3.59711-3.24579a15.78528,15.78528,0,0,0-3.47241,3.373,32.26336,32.26336,0,0,1-3.39752,3.74582q2.684,2.44912,5.31555,4.98383-2.25394,2.3541-4.50775,4.70822-2.46331-2.37313-4.97461-4.66928a72.33466,72.33466,0,0,0-6.88172,7.15842q-3.31164,3.9261-6.77008,7.46417,3.10749,2.83535,6.13666,5.79819,1.54074-1.58469,3.08154-3.1695,2.82395,2.76275,5.578,5.63422-3.96231,3.823-7.92456,7.64593-8.13621-8.48442-16.90094-15.97421,4.2496-4.99278,8.49914-9.98566,1.603-1.88272,3.28626-3.6463a39.02819,39.02819,0,0,0,3.01336-3.5365,19.06892,19.06892,0,0,0,2.11621-3.5126,5.93824,5.93824,0,0,0,.45575-3.58963,10.07527,10.07527,0,0,1,2.06568-.65979c.71393-.1474,1.4234-.28046,2.12622-.40347q5.12356-6.0197,10.24707-12.03934l.34009-.39957Q695.53983,294.81109,705.39362,305.0705Zm-33.56189-.65552a16.94873,16.94873,0,0,1-3.62622,4.69122q-2.45609,2.33139-4.608,4.82871-4.09276,4.73185-8.18567,9.46374,7.20538,6.2672,13.99921,13.21054,2.6434-2.59981,5.28687-5.19961-1.26665-1.29579-2.54779-2.5687-1.55265,1.57242-3.10511,3.14493-4.43517-4.40643-9.045-8.53415,3.95-4.30632,7.82886-8.92984a99.4756,99.4756,0,0,1,7.96081-8.50992,6.78949,6.78949,0,0,1,1.49024,1.297q.88769.95988,1.77179,1.78189a7.49042,7.49042,0,0,0,1.6007,1.18945c.47815.24427.82886.06122,1.05146-.55386a16.70767,16.70767,0,0,0-1.91114-2.29837q-1.12857-1.14231-2.41259-2.25253-1.286-1.10793-2.67853-2.23233a26.40077,26.40077,0,0,1-2.46881-2.23942,2.98672,2.98672,0,0,0-.23145,1.82624A3.65435,3.65435,0,0,1,671.83173,304.415Z" transform="translate(-198.5 -198.5)"/><path class="cls-2" d="M728.99622,332.88129q-4.324,3.22041-8.64826,6.441-2.76-3.70972-5.61291-7.2956,1.58038-1.26123,3.161-2.52249a24.36267,24.36267,0,0,0-2.87183-3.84741q-1.792-2.00011-3.29974-3.87811-3.7523,3.21758-7.50452,6.43521a16.74506,16.74506,0,0,0,2.44733,3.49469q1.6052,1.82634,3.30932,3.6596,1.7006,1.8343,3.2309,3.69928a14.26939,14.26939,0,0,1,2.21112,3.54074,2.26851,2.26851,0,0,1,.28394,1.3245,5.96146,5.96146,0,0,1-.267,1.08966q-.17871.51328-.36151,1.02634a1.84519,1.84519,0,0,0-.00287,1.13983,5.08871,5.08871,0,0,1-2.59033-.118,4.12088,4.12088,0,0,0-2.523-.01,11.31686,11.31686,0,0,0-2.60822,1.38675q-1.2919.8996-2.58,1.98983-1.29254,1.08518-2.64636,2.27677-1.355,1.19115-2.67541,2.17416-5.19507,3.86916-10.39014,7.73828-7.27029-9.77165-15.27124-18.5419,4.11465-3.76932,8.22943-7.53866,2.72626,2.9934,5.37616,6.09805-1.6203,1.3895-3.24072,2.77893a15.71725,15.71725,0,0,0,2.52685,3.30337,26.49333,26.49333,0,0,1,2.82837,3.43281q7.72669-6.16576,15.45307-12.33155Q699.422,332.8651,693.535,326.39191a3.65293,3.65293,0,0,1,.15577-2.27176,4.79083,4.79083,0,0,0,.31384-2.30933c.74975-.07266,1.51318-.14895,2.28509-.231q1.15706-.12488,2.35-.26239,5.71627-5.23631,11.43225-10.47268l.44153-.40445Q720.18143,321.05487,728.99622,332.88129Zm-33.37256-7.19663q6.43926,7.13265,12.46856,14.8504-9.34707,7.31553-18.69409,14.63093a59.23332,59.23332,0,0,0-4.24756-5.29139,53.11331,53.11331,0,0,1-4.01049-4.96341q1.663-1.45435,3.32611-2.90869-1.14552-1.31676-2.3053-2.61282-2.75592,2.47967-5.51166,4.95932,6.51224,7.27776,12.55139,15.22583,4.85844-3.69365,9.71686-7.38736,1.9671-1.4957,3.81543-3.02365a40.73361,40.73361,0,0,1,3.6059-2.68109,16.07246,16.07246,0,0,1,3.46441-1.75162,5.31961,5.31961,0,0,1,3.398-.08609q-8.1947-11.0138-17.21264-20.899a2.32279,2.32279,0,0,0-.26935.98441A7.39342,7.39342,0,0,1,695.62366,325.68466Z" transform="translate(-198.5 -198.5)"/><circle class="cls-3" cx="41.5" cy="301.5" r="15"/><circle class="cls-3" cx="57.17992" cy="390.42524" r="15"/><circle class="cls-3" cx="102.32844" cy="468.62478" r="15"/><circle class="cls-3" cx="171.5" cy="526.6666" r="15"/><circle class="cls-3" cx="431.5" cy="526.6666" r="15"/><circle class="cls-3" cx="500.67156" cy="468.62478" r="15"/><circle class="cls-3" cx="545.82008" cy="390.42524" r="15"/><circle class="cls-3" cx="561.5" cy="301.5" r="15"/><circle class="cls-3" cx="545.82008" cy="212.57476" r="15"/><circle class="cls-3" cx="57.17992" cy="212.57476" r="15"/><polygon class="cls-3" points="241.517 570.704 243.908 560.083 236.849 552.155 247.302 551.074 252.501 541.551 256.57 551.504 266.842 553.546 258.904 560.779 260.054 571.564 251.079 566.081 241.517 570.704"/><polygon class="cls-3" points="341.342 570.191 343.735 559.913 336.486 552.201 347.16 551.202 352.428 542.001 356.632 551.662 367.136 553.688 359.06 560.657 360.285 571.111 351.089 565.757 341.342 570.191"/></g><g id="Calque_6" data-name="Calque 6"><path class="cls-4" d="M403.87159,514.0591c-4.39178,2.98825-16.17,12.48887-15.31915,13.7872.55746.85059,5.85-2.86553,8.85107-.851,2.40769,1.61615,2.19156,6.14954,1.3617,11.74463-1.833,12.3584-5.1568,19.75983-7.31915,27.06384-1.99073,6.72431-2.46189,12.25592-3.40424,23.31916-1.20648,14.16443.45282,13.19677.51062,42.89361a71.87089,71.87089,0,0,0,1.02127,13.95746,75.74129,75.74129,0,0,0,6.12769,18.21277c11.67715,23.03339,179.63574,40.04736,190.6383-.68085.5744-2.12622.05817-1.95611-2.383-22.12768,0-.00013-3.13825-25.93189-4.93616-50.55317-2.24079-30.68664-.05377-29.33459-1.70215-35.57446C563.96061,504.68539,439.8122,489.60448,403.87159,514.0591Z" transform="translate(-198.5 -198.5)"/></g><g id="Calque_5" data-name="Calque 5"><path class="cls-4" d="M434.16947,422.99526c.25968-4.88956,10.30079-19.94055,30.383-50.04254.00006-.00009,12.213-18.30655,35.234-42.89362,6.76849-7.22891,11.44977-11.70434,18.95746-14.242,13.98608-4.72745,27.31384.74887,34.65954,3.77392,6.6706,2.747,21.16382,8.71552,29.44232,23.20255,4.0293,7.05109,4.18158,11.912,6.51673,40.0947,3.0592,36.922,2.4259,24.09063,3.0758,35.53607,3.05408,53.78558,4.63153,80.7261.53968,84.99649C565.66142,531.9295,431.56327,472.07088,434.16947,422.99526Z" transform="translate(-198.5 -198.5)"/><path class="cls-4" d="M457.91416,383.67611q-4.59576,6.766-9.19149,13.53192a279.50312,279.50312,0,0,1,146.22812,68.6731q-.59336-11.92938-1.18665-23.85871a284.08235,284.08235,0,0,0-135.85-58.34631Z" transform="translate(-198.5 -198.5)"/><path class="cls-4" d="M444.09248,403.98681q-3.42962,6.6957-6.85919,13.39145A303.15047,303.15047,0,0,1,595.02055,492.0591q.12762-8.617.25531-17.234a235.88716,235.88716,0,0,0-151.18338-70.83825Z" transform="translate(-198.5 -198.5)"/><path class="cls-5" d="M682.68009,403.08037" transform="translate(-198.5 -198.5)"/></g><g id="Calque_4" data-name="Calque 4"><path class="cls-4" d="M291.44606,437.0378c1.43264-11.56079,8.19869-18.914,11.234-22.21274a48.90728,48.90728,0,0,1,20.42554-13.0213c8.183-2.90561,14.69235-3.005,24-3.06381,12.74939-.08057,22.3259,1.76978,31.40427,3.57446a248.9779,248.9779,0,0,1,30.12765,8.17023,311.25661,311.25661,0,0,1,31.91489,12c10.3266,4.56958,11.428,5.78165,32.93619,16.851,9.97119,5.13175,17.88147,9.03818,33.70208,16.85108,16.02271,7.91269,27.96106,13.66791,38.80854,18.89361,18.57177,8.94687,27.85766,13.42032,36,17.10639,19.63617,8.8894,29.72308,13.41974,42.89361,17.617,12.76648,4.06848,23.40937,7.38623,38.04254,8.42554a128.06119,128.06119,0,0,0,33.44684-2.04254,22.61641,22.61641,0,0,1,0,4.59573,25.64435,25.64435,0,0,1-5.36169,12.766c-7.543,10.31275-20.9361,16.3404-20.93616,16.34046-18.562,8.35394-36.23175,10.034-45.95746,10.72339a344.84789,344.84789,0,0,1-54.6383-.51062,619.94741,619.94741,0,0,1-78.63831-12c-31.30316-6.78894-53.08365-13.85718-81.1915-22.97876a592.89682,592.89682,0,0,1-61.27658-24,188.72907,188.72907,0,0,1-39.57446-26.04255c-4.8241-4.133-10.61646-9.57449-14.29788-18.383A37.841,37.841,0,0,1,291.44606,437.0378Z" transform="translate(-198.5 -198.5)"/><path class="cls-6" d="M379.02052,444.44207" transform="translate(-198.5 -198.5)"/><path class="cls-6" d="M315.95671,445.208" transform="translate(-198.5 -198.5)"/><path class="cls-5" d="M318.42478,471.50591a82.52769,82.52769,0,0,1,22.46808-13.95746c22.262-8.87405,43.93329-2.02014,58.87647,2.93467,28.11557,9.32244,30.01907,18.90689,67.76184,38.59725,16.449,8.58146,28.41254,13.19095,50.72339,21.78724,21.04394,8.10815,47.34363,18.11975,82.86316,25.84918a376.72166,376.72166,0,0,0,37.64752,6.49127,523.86884,523.86884,0,0,1-79.18463-16.913c-20.10053-5.98523-38.02069-12.78763-42.68775-14.57642-7.22857-2.77057-17.14123-6.58878-29.95746-12.42554-15.76763-7.1809-30.32348-13.74511-44.93615-23.48938-2.29618-1.53115-6.81537-4.62143-13.617-8.851-7.68216-4.77716-12.28341-7.63849-17.39474-10.21567a113.0388,113.0388,0,0,0-36.701-10.87387c-7.87976-1.08417-13.79965-1.89868-21.64893-.35727-6.70874,1.31742-11.87558,3.77628-17.53192,6.46808A127.74188,127.74188,0,0,0,318.42478,471.50591Z" transform="translate(-198.5 -198.5)"/></g><g id="Calque_3" data-name="Calque 3"><path class="cls-4" d="M466.595,573.63354c-.34143-3.34278,11.35895-6.91761,13.78723-7.65955,7.65082-2.33758,20.12622-4.30615,21.44678-1.0213,1.14044,2.83691-6.05469,9.55359-14.03925,12.009C478.14848,579.92651,466.91972,576.81231,466.595,573.63354Z" transform="translate(-198.5 -198.5)"/><path class="cls-4" d="M408.38224,558.56975c.75562-1.03173,4.08847-.27636,10.72339,1.27655,6.70267,1.56879,7.726,2.36506,8.42554,3.31916,1.91275,2.60864,1.88434,7.05017-.25531,8.93622-3.14139,2.7691-9.71451-.95667-12.51065-3.06385C410.55921,565.86816,407.02336,560.42528,408.38224,558.56975Z" transform="translate(-198.5 -198.5)"/><path class="cls-4" d="M509.74394,482.2293q6.6383-4.08509,13.27661-8.1702h0q.25535,7.40424.51062,14.80851Q516.63751,485.54846,509.74394,482.2293Z" transform="translate(-198.5 -198.5)"/><path class="cls-4" d="M528.89286,477.63357q.383,7.02126.766,14.04254l12.51062-5.87235Z" transform="translate(-198.5 -198.5)"/><path class="cls-4" d="M547.53117,487.84634l-12,7.65957,14.04254,6.89362Q548.55244,495.12291,547.53117,487.84634Z" transform="translate(-198.5 -198.5)"/><path class="cls-4" d="M554.68009,491.4208q6.76593,2.93619,13.53193,5.87234-5.87238,3.8298-11.74469,7.65958Q555.57368,498.18675,554.68009,491.4208Z" transform="translate(-198.5 -198.5)"/><path class="cls-4" d="M574.595,499.84634l-13.27661,7.40423,15.82977,7.91492Q575.87156,507.50591,574.595,499.84634Z" transform="translate(-198.5 -198.5)"/><path class="cls-4" d="M580.46733,502.39953q7.65957,3.44682,15.31915,6.89361-6.25534,4.08508-12.51062,8.1702Q581.87162,509.93143,580.46733,502.39953Z" transform="translate(-198.5 -198.5)"/><path class="cls-4" d="M600.63755,511.84634q-6,3.44682-12,6.89361l15.31916,8.42551Z" transform="translate(-198.5 -198.5)"/><path class="cls-4" d="M607.78648,513.63357q1.02127,7.02126,2.04254,14.04257,6.383-3.5745,12.766-7.149Q615.19077,517.08036,607.78648,513.63357Z" transform="translate(-198.5 -198.5)"/><path class="cls-4" d="M627.19071,521.80376q-6.25533,3.95746-12.51062,7.91492,8.17026,2.93619,16.34046,5.87231Q629.10563,528.69735,627.19071,521.80376Z" transform="translate(-198.5 -198.5)"/><path class="cls-4" d="M633.57371,524.10165q2.17026,6.63825,4.34045,13.27658,5.87238-4.34043,11.74469-8.68085Q641.61632,526.3995,633.57371,524.10165Z" transform="translate(-198.5 -198.5)"/><path class="cls-4" d="M653.74394,530.48461l-9.19147,8.42554q8.29788,1.40422,16.5957,2.80853Z" transform="translate(-198.5 -198.5)"/><path class="cls-4" d="M660.63755,532.27184q3.19153,6,6.383,12,4.468-6.25533,8.93616-12.51062Q668.29713,532.01657,660.63755,532.27184Z" transform="translate(-198.5 -198.5)"/><path class="cls-4" d="M300.1269,430.39953l4.59577,11.74466q4.46809-4.85106,8.93615-9.70212Z" transform="translate(-198.5 -198.5)"/><path class="cls-4" d="M305.99925,423.76122l12.51065,4.34043q1.40424-6.63831,2.8085-13.27659Q313.65883,419.29315,305.99925,423.76122Z" transform="translate(-198.5 -198.5)"/><path class="cls-4" d="M502.595,465.88888q.51058,7.14894,1.02124,14.29788l13.0213-7.91489Q509.61629,469.0804,502.595,465.88888Z" transform="translate(-198.5 -198.5)"/><path class="cls-4" d="M496.212,462.0591q-6.12763,3.70212-12.25531,7.40424l13.53192,6.63831Z" transform="translate(-198.5 -198.5)"/><path class="cls-4" d="M476.55247,453.12292q.89364,6.51063,1.78723,13.02127l13.78723-6.63828Z" transform="translate(-198.5 -198.5)"/><path class="cls-4" d="M470.16947,448.78249q-6.25533,3.82979-12.51062,7.65958,6.89366,3.57444,13.78724,7.14892Z" transform="translate(-198.5 -198.5)"/><path class="cls-4" d="M450.25459,439.33568q1.02126,6.89361,2.04251,13.78724,5.617-3.31916,11.23407-6.63828Q456.89286,442.91016,450.25459,439.33568Z" transform="translate(-198.5 -198.5)"/><path class="cls-4" d="M430.85032,445.71868q6.12766-4.59576,12.25531-9.1915,1.5319,7.14894,3.06384,14.29788Q438.5099,448.2719,430.85032,445.71868Z" transform="translate(-198.5 -198.5)"/><path class="cls-4" d="M422.93543,428.6123l3.31916,14.04254q5.87232-4.08508,11.74466-8.1702Q430.46735,431.54845,422.93543,428.6123Z" transform="translate(-198.5 -198.5)"/><path class="cls-4" d="M416.29713,425.29314q-6.12766,4.59578-12.25531,9.1915,7.65957,2.80852,15.31915,5.617Q417.82907,432.69741,416.29713,425.29314Z" transform="translate(-198.5 -198.5)"/><path class="cls-4" d="M395.10563,419.16549q1.91492,6.63831,3.8298,13.27658,5.36171-4.21275,10.72339-8.42554Q402.38222,421.591,395.10563,419.16549Z" transform="translate(-198.5 -198.5)"/><path class="cls-4" d="M387.95671,416.86761q-5.1064,4.72338-10.21277,9.4468,7.78723,2.42556,15.57446,4.85108Z" transform="translate(-198.5 -198.5)"/><path class="cls-4" d="M382.85032,415.591l-9.95746,9.95746q-3.31915-6.383-6.63827-12.766Q374.55247,414.18673,382.85032,415.591Z" transform="translate(-198.5 -198.5)"/><path class="cls-4" d="M359.10563,411.50591q-4.97873,6.2553-9.95743,12.51062,7.78725.25535,15.57447.51065Z" transform="translate(-198.5 -198.5)"/><path class="cls-4" d="M335.61628,411.25057q4.21275,5.48937,8.42554,10.97873L353.48863,410.74Z" transform="translate(-198.5 -198.5)"/><path class="cls-4" d="M327.19074,414.31441q-1.91487,7.02127-3.82977,14.04255,7.27657-2.29789,14.55316-4.59574Q332.55244,419.03784,327.19074,414.31441Z" transform="translate(-198.5 -198.5)"/></g><g id="Calque_7" data-name="Calque 7"><path class="cls-4" d="M418.68009,636.10168c.2743.76538,1.87592.49279,13.47687-.02253.00009,0,1.76993-.07861,12.7359-.48816,18.05487-.67425,25.0611,2.0387,25.70215.17023,1.0257-2.98968-11.73645-13.43121-26.21277-13.27661C430.05787,622.63756,417.61427,633.12737,418.68009,636.10168Z" transform="translate(-198.5 -198.5)"/><path class="cls-7" d="M457.14817,663.33568" transform="translate(-198.5 -198.5)"/><path class="cls-5" d="M444.212,631.50591a18.59323,18.59323,0,0,1,11.56286,4.0661q-5.28771-.07983-10.882.019-6.579.12232-12.7359.48816A18.653,18.653,0,0,1,444.212,631.50591Z" transform="translate(-198.5 -198.5)"/><path class="cls-4" d="M424.63755,587.93145c.94089-1.17871,2.997-.78449,13.78723,2.04254,12.77,3.3457,14.58869,4.271,14.63831,5.44678.05139,1.21686-2.51895,2.45666-7.65958,4.93622-4.7839,2.30749-7.24548,3.40619-9.53192,3.06378-4.01632-.60144-6.48388-3.919-8-5.9574C427.52937,597.00323,422.68156,590.38189,424.63755,587.93145Z" transform="translate(-198.5 -198.5)"/></g><g id="Calque_2" data-name="Calque 2"><path class="cls-4" d="M446.42712,615.571c-.90933-4.04083-5.54746-5.815-9.70215-7.40424-4.078-1.55993-11.592-4.4342-19.40424-1.0213-5.58953,2.4419-8.5166,6.87238-10.72342,10.21277-3.04449,4.60834-2.85421,6.62354-5.617,13.53192-3.7616,9.40589-7.91385,19.7887-14.42728,20.45764-4.6918.48182-8.74655-4.26782-9.05151-4.63446-.00006-.00006-1.59253-1.91455-4.351-11.9934h0a37.11325,37.11325,0,0,0-3.31916,8.42553,16.18026,16.18026,0,0,0,3.39081,12.76343c4.8508,6.04016,12.312,6.13464,13.46027,6.13019,7.54867-.02948,12.77-5.16748,16.34042-8.68085,6.309-6.20831,4.29444-8.3797,10.72342-15.31915,4.1106-4.437,9.50339-10.258,17.617-11.74469,5.24691-.96143,8.4396.47467,11.74469-2.29785C445.37686,622.09324,447.128,618.68534,446.42712,615.571Z" transform="translate(-198.5 -198.5)"/><path class="cls-4" d="M440.25469,615.1874c.90933-4.04083,5.54746-5.815,9.70215-7.40423,4.078-1.55994,11.592-4.43421,19.40424-1.02131,5.58953,2.4419,8.5166,6.87238,10.72341,10.21277,3.0445,4.60834,2.85422,6.62354,5.617,13.53192,3.7616,9.40589,7.91385,19.7887,14.42728,20.45765,4.6918.48181,8.74655-4.26783,9.05151-4.63446.00006-.00007,1.59253-1.91456,4.351-11.99341h0a37.11325,37.11325,0,0,1,3.31916,8.42553,16.18026,16.18026,0,0,1-3.39081,12.76343c-4.8508,6.04016-12.312,6.13465-13.46027,6.13019-7.54867-.02948-12.77-5.16748-16.34042-8.68085-6.309-6.20831-4.29444-8.3797-10.72342-15.31915-4.1106-4.437-9.50339-10.258-17.617-11.74469-5.24691-.96143-8.4396.47467-11.74469-2.29785C441.305,621.70968,439.55382,618.30178,440.25469,615.1874Z" transform="translate(-198.5 -198.5)"/></g></svg>