<svg xmlns="http://www.w3.org/2000/svg" viewBox="0 0 603 603"><defs><style>.cls-1,.cls-2,.cls-3{fill:none;stroke:#fff;stroke-miterlimit:10;}.cls-1{stroke-width:3px;}.cls-3{stroke-width:2px;}</style></defs><g id="Calque_8" data-name="Calque 8"><circle class="cls-1" cx="301.5" cy="301.5" r="300"/><circle class="cls-1" cx="301.5" cy="301.5" r="225"/><path class="cls-2" d="M286.99734,310.50757q4.00274,3.66971,8.00541,7.33929-3.00156,3.293-5.92023,6.70667-1.56216-1.342-3.12421-2.68378a18.73811,18.73811,0,0,0-3.17972,3.43268q-1.52961,2.08626-3.104,3.938a15.26424,15.26424,0,0,0,3.57633,3.26263,31.35623,31.35623,0,0,1,3.94912,3.15537q2.353-2.95455,4.76783-5.82358,2.488,2.10366,4.976,4.20721-2.26136,2.6868-4.46753,5.45066a69.78686,69.78686,0,0,0,7.56595,6.42676q4.1261,3.05377,7.86923,6.28756,2.72553-3.42242,5.54282-6.71737-1.67616-1.44-3.35236-2.8798,2.6261-3.07214,5.32779-6.03555,4.05812,3.72053,8.11627,7.44095-7.98294,8.7578-15.26706,18.50919-5.25105-3.91989-10.5021-7.8397-1.98015-1.478-3.843-3.05035a36.368,36.368,0,0,0-3.71958-2.77991,18.11109,18.11109,0,0,0-3.65841-1.85626,5.87474,5.87474,0,0,0-3.674-.12686,10.153,10.153,0,0,1-.75162-2.07663q-.26679-1.0865-.49539-2.15985-6.331-4.72609-12.662-9.452l-.42026-.31369Q277.33751,321.08818,286.99734,310.50757Zm1.06782,34.167a16.11983,16.11983,0,0,1,4.9186,3.30518,64.66983,64.66983,0,0,0,5.09937,4.30413q4.97946,3.78215,9.95886,7.56443,6.06936-8.00427,12.63-15.33286-2.75661-2.47869-5.51319-4.95758-1.22281,1.36743-2.4299,2.75769l3.32907,2.90531q-4.17879,4.813-8.15991,9.90457-4.54161-3.67338-9.40192-7.24527a94.87546,94.87546,0,0,1-8.98217-7.41748,7.38354,7.38354,0,0,1,1.24548-1.63895c.62024-.66092,1.19214-1.31186,1.718-1.96088a7.99826,7.99826,0,0,0,1.12225-1.72912q.33375-.76026-.61142-1.02561a17.72553,17.72553,0,0,0-2.227,2.13712q-1.101,1.24753-2.16666,2.66016-1.06516,1.416-2.14587,2.94857a29.43993,29.43993,0,0,1-2.17346,2.752,2.962,2.962,0,0,0,1.86685.068A3.6349,3.6349,0,0,1,288.06516,344.67456Z" transform="translate(-198.5 -198.5)"/><path class="cls-2" d="M298.54919,298.43958q15.00439,15.45071,30.00876,30.90158,2.93994-2.87269,5.95426-5.62607a3.39522,3.39522,0,0,0-1.21149-1.73422,10.31962,10.31962,0,0,1-1.62729-1.66044q3.00317-2.73943,6.07575-5.36273,3.61353,4.255,7.227,8.50989-8.86937,7.57329-17.12354,16.16168-4.796-4.63023-9.59192-9.26053-2.37088-2.289-4.67312-4.97461a18.3591,18.3591,0,0,0-4.70377-4.07833,3.66868,3.66868,0,0,0-2.08459-.583q-1.19606.0087-2.26947-.05527a5.80789,5.80789,0,0,0-.92609-3.97461,20.57649,20.57649,0,0,0-3.14722-3.80563q-1.93908-1.87514-4.15552-3.72968a33.90953,33.90953,0,0,1-3.85321-3.72009c-.251-.24219-.32141-.45807-.21045-.64529Q295.35432,301.561,298.54919,298.43958Zm11.529,20.78149a19.466,19.466,0,0,1,4.41912,3.94363q2.15067,2.51789,4.45,4.77146,4.48782,4.41,8.97577,8.81985,6.768-6.93045,13.95785-13.19128-2.3801-2.7459-4.7601-5.49179-1.27817,1.1141-2.54422,2.24884,1.47033,1.65,2.94067,3.30008a54.8564,54.8564,0,0,0-4.76477,4.38745,50.734,50.734,0,0,1-4.58612,4.24307q-8.85291-8.9447-17.70578-17.88931-2.05027,2.042-4.066,4.13775a4.12884,4.12884,0,0,0,1.87879.31836A3.22374,3.22374,0,0,1,310.07819,319.22107Z" transform="translate(-198.5 -198.5)"/><path class="cls-2" d="M320.05768,279.43478a283.31179,283.31179,0,0,1,38.15762-25.666,28.63651,28.63651,0,0,1,2.72559,4.65811q1.25578,2.64546,2.59726,5.0303a24.79052,24.79052,0,0,0,2.874,4.14609,6.34145,6.34145,0,0,0,3.5806,2.17252,3.35722,3.35722,0,0,1-.13611,2.17209,3.83814,3.83814,0,0,0-.165,2.27945,12.33709,12.33709,0,0,0,1.089,2.78375q.75036,1.428,1.67566,2.88354.92372,1.46017,1.92215,2.96036.99654,1.50366,1.80325,2.942,3.20814,5.71925,6.41638,11.43841-3.272,1.83394-6.49576,3.779-11.12892-18.45031-22.2579-36.90064a21.95505,21.95505,0,0,0-3.976,2.22385q-2.12417,1.46332-4.07447,2.64633,11.78006,18.13046,23.56012,36.2608-3.0635,1.99375-6.07672,4.09149-12.33156-17.759-24.66315-35.518-3.76424,2.621-7.45852,5.3793,6.03034,8.77749,12.65161,17.39392,6.60576,8.62917,13.02161,17.39923-2.98851,2.235-5.92,4.57651-4.08049-5.132-8.161-10.264-1.58523-1.99378-3.01748-4.01565a39.89512,39.89512,0,0,0-2.9361-3.69675,15.71729,15.71729,0,0,0-3.13245-2.72351,6.49327,6.49327,0,0,0-3.50079-1.07156,3.21941,3.21941,0,0,1-.1795-2.21793,4.42182,4.42182,0,0,0-.15174-2.52158,11.69673,11.69673,0,0,0-1.89142-3.09246q-1.2507-1.49424-2.70181-2.925-1.45427-1.42695-2.77087-2.91812a17.02487,17.02487,0,0,1-2.19629-3.08841C320.05246,279.75922,319.98019,279.56049,320.05768,279.43478Zm23.59744,26.52481q3.82887,4.90123,7.65759,9.80256,1.28307-1.00677,2.57694-1.99353-8.52137-11.21856-17.04263-22.43732-2.35881,1.79906-4.68555,3.65756a6.20775,6.20775,0,0,1,3.15732,1.2258,18.99014,18.99014,0,0,1,2.83654,2.63025,41.16589,41.16589,0,0,1,2.7345,3.4266Q342.22466,304.13045,343.65512,305.95959Zm4.61078-22.22979q7.78944,11.42367,15.579,22.84744,1.298-.88728,2.60544-1.75562-7.7845-11.74351-15.56891-23.48706a4.06029,4.06029,0,0,1-.80744.58313c-.35656.20908-.69622.40891-1.02493.60016a2.73688,2.73688,0,0,0-.74435.595A.4726.4726,0,0,0,348.2659,283.7298Zm14.37707-9.76874q3.145,6.06336,6.91758,12.14758,3.7629,6.09152,7.2713,12.19947,1.37783-.81546,2.7644-1.61081-6.1738-10.75745-12.34765-21.51493a7.1982,7.1982,0,0,1,.17154-1.95367,5.17752,5.17752,0,0,0,.02838-2.03928Q365.03414,272.54835,362.643,273.96106Z" transform="translate(-198.5 -198.5)"/><path class="cls-2" d="M365.77243,249.76593q11.89059-6.20133,24.22424-11.22a29.49174,29.49174,0,0,1,2.14948,4.99125q.90966,2.74419,1.95111,5.27353a25.08237,25.08237,0,0,0,2.341,4.46815,6.00434,6.00434,0,0,0,3.23868,2.5351,7.22637,7.22637,0,0,1-.389,2.13256,10.16933,10.16933,0,0,0-.4855,2.0961q4.99919,12.20416,9.99844,24.40851-3.3609,1.36917-6.68643,2.84482-5.36929-12.04683-10.73843-24.09366-3.81862,1.69464-7.59214,3.5155c1.573,3.95615,3.39048,7.92008,5.423,11.90366q3.04742,5.97629,5.84854,11.94766-3.2839,1.58913-6.527,3.2847-3.07791-5.87531-6.15594-11.75061-1.59925-3.05292-2.9364-6.28714a19.13435,19.13435,0,0,0-3.14969-5.33017,3.45569,3.45569,0,0,0-1.64023-1.12787,8.49084,8.49084,0,0,1-1.82791-.85486,7.20262,7.20262,0,0,0-.11454-4.34707,29.62705,29.62705,0,0,0-2.00186-4.74677q-1.26777-2.42409-2.76245-4.85641A19.006,19.006,0,0,1,365.77243,249.76593Zm18.07028,30.395q2.85553,5.56838,5.71109,11.13675,1.49034-.76263,2.98938-1.503-2.85333-5.94507-6.01712-11.94727a131.223,131.223,0,0,1-5.59213-11.90756q5.82734-2.87338,11.76544-5.44568,5.29431,12.16132,10.58875,24.32257,1.52746-.66187,3.06234-1.30157-2.41789-5.77118-4.83581-11.54233-.89731-2.14124-1.87683-4.25086-.98071-2.10694-1.73749-4.02517a15.8325,15.8325,0,0,1-.99655-3.68372,6.12909,6.12909,0,0,1,.36319-3.229q-11.39013,4.64968-22.4007,10.38489a6.68979,6.68979,0,0,1,2.76816,1.90042,18.04334,18.04334,0,0,1,2.23679,3.14874q1.01943,1.79338,1.98187,3.868Q382.81632,278.16236,383.84271,280.161Zm-7.57248-28.29077q2.19279,4.51734,4.38559,9.03467,3.99248-1.932,8.03553-3.72593-2.04411-4.58631-4.08817-9.17259Q380.411,249.86665,376.27023,251.87018Z" transform="translate(-198.5 -198.5)"/><path class="cls-2" d="M398.78256,235.0553q12.40549-4.58178,25.12958-7.98953a30.1416,30.1416,0,0,1,1.523,5.25271q.57321,2.87126,1.30212,5.54556A21.4363,21.4363,0,0,0,428.60107,242.6a5.91172,5.91172,0,0,0,3.0441,2.80393,6.03762,6.03762,0,0,0-1.151,3.35943,16.1854,16.1854,0,0,0,.36313,4.12857q.45666,2.20487,1.22049,4.67538.75939,2.4722,1.42535,4.93094,1.71264,6.32708,3.4253,12.65414-10.62869,2.84991-21.01267,6.69266-2.33034-6.24815-4.66064-12.49631-.57564-1.54348-1.06787-3.24-.49142-1.69518-.99359-3.308-.50473-1.6105-1.09195-3.07062a12.6269,12.6269,0,0,0-1.40274-2.59741,3.33393,3.33393,0,0,0-1.64649-1.38535,6.5511,6.5511,0,0,1-1.8649-1.13786,6.01905,6.01905,0,0,0,.66736-3.8943,23.77409,23.77409,0,0,0-1.18521-4.79444q-.89786-2.5448-2.08469-5.18092a36.12421,36.12421,0,0,1-1.87225-5.01994C398.59116,235.39293,398.61356,235.17082,398.78256,235.0553Zm14.019,32.45108q2.15043,5.915,4.30087,11.82989,8.57331-3.09563,17.32727-5.5216-1.676-5.98768-3.35224-11.97538-.6252-2.23534-1.33654-4.44909-.71352-2.21122-1.19284-4.25574A19.90408,19.90408,0,0,1,428,249.32167a5.84,5.84,0,0,1,.704-3.14265q-2.62523.70772-5.23822,1.46933,3.57189,12.14659,7.14383,24.293a50.51829,50.51829,0,0,0-5.87677,1.794,44.25837,44.25837,0,0,1-5.6499,1.72193q-4.14552-11.88534-8.2909-23.77071-2.57875.89285-5.14224,1.83961a6.33935,6.33935,0,0,1,2.43759,2.21993,19.95487,19.95487,0,0,1,1.76587,3.38463q.78735,1.90813,1.48361,4.0852Q412.03206,265.39577,412.80161,267.50638Zm-3.77228-28.51872q5.76965,17.03148,11.53933,34.063,3.7599-1.26406,7.55262-2.40347-5.291-17.45861-10.582-34.91718-4.26453,1.28133-8.49415,2.69985C408.8,238.51224,408.794,238.69894,409.02933,238.98766Z" transform="translate(-198.5 -198.5)"/><path class="cls-2" d="M456.99731,240.539l-.02352-.14757a6.49059,6.49059,0,0,1,1.131-1.99362,3.6774,3.6774,0,0,0,.81036-2.394,18.93475,18.93475,0,0,0-.29947-3.58989q-.33362-1.91736-.77853-3.935-.44532-2.01486-.84345-4.00123a18.01741,18.01741,0,0,1-.37164-3.80651,37.50178,37.50178,0,0,0,4.43359-.62022,14.40082,14.40082,0,0,1,4.07721-.28284,18.14138,18.14138,0,0,1,.64484,3.77019q.14186,2.01879.23984,4.044.09632,2.0241.23642,3.96883a13.36823,13.36823,0,0,0,.70569,3.53663,3.86162,3.86162,0,0,0,1.54531,2.04555,3.79514,3.79514,0,0,1,1.48276,1.68137,8.52559,8.52559,0,0,1-1.15252,2.01129,4.66268,4.66268,0,0,0-.93561,2.14416,22.91223,22.91223,0,0,0,.46954,6.16584q.66957,3.35348,1.06458,6.69928.77147,6.46938,1.54287,12.93881a20.3078,20.3078,0,0,0-3.59466.45083,11.5641,11.5641,0,0,1-3.4596.25892q-.94716-6.33281-1.89422-12.66559-.49892-3.334-.71945-6.89646a19.38436,19.38436,0,0,0-1.21927-6.06666,3.48174,3.48174,0,0,0-1.41483-1.75618A6.85523,6.85523,0,0,1,456.99731,240.539Zm6.80787,14.737q.86586,6.118,1.73159,12.23605,1.545-.216,3.092-.412-1.58646-12.36824-3.17306-24.73644a16.301,16.301,0,0,1,.935-1.6636,8.89558,8.89558,0,0,0,.848-1.72428q-3.86865.45828-7.72531,1.02808a6.65476,6.65476,0,0,1,2.09289,2.64908,16.18747,16.18747,0,0,1,1.11658,3.69961q.37912,2.0655.56711,4.34469Q463.478,252.97876,463.80518,255.276Z" transform="translate(-198.5 -198.5)"/><path class="cls-2" d="M483.49738,217.59464a6.84247,6.84247,0,0,0,.01116,2.88647,4.54452,4.54452,0,0,0,1.02738,1.93307,8.93844,8.93844,0,0,0,1.66293,1.41959q.94277.63165,2.02594,1.33908,1.37925.99639,2.54322,1.74826,1.16363.75231,2.22232,1.55345-.125-5.61486-.25-11.22969,4.279-.094,8.55926-.06241a29.26856,29.26856,0,0,1,.05551,5.39219q-.216,2.91788-.23333,5.65176a23.68219,23.68219,0,0,0,.47549,5.05864,6.23634,6.23634,0,0,0,2.02921,3.62076,15.50078,15.50078,0,0,1-1.21363,1.77971q-.64873.817-1.2875,1.78538-.09921,13.254-.19837,26.5081-3.53925-.02613-7.0784.05161-.24243-10.89285-.48495-21.78572a35.53832,35.53832,0,0,1,.14044-3.82326,8.1687,8.1687,0,0,0-.30212-3.43962,2.54458,2.54458,0,0,0-.70633-.88228,13.45154,13.45154,0,0,0-1.218-.90338q-.70427-.466-1.40927-.8546a5.39519,5.39519,0,0,1-1.09079-.74846q-1.14628-.92832-2.16538-1.78354a8.52342,8.52342,0,0,0-2.36163-1.3818q.97719,17.94591,1.95422,35.8919-3.57545.19218-7.14517.49054-.55289-6.52921-1.10583-13.05838-.2086-2.46242-.28647-4.93588a41.61107,41.61107,0,0,0-.39572-4.70137,19.97749,19.97749,0,0,0-.97333-4.01369,6.386,6.386,0,0,0-2.1406-2.93039,7.28409,7.28409,0,0,0,1.64789-3.82986,22.14364,22.14364,0,0,0,.10089-4.89313q-.22019-2.61139-.60138-5.39862a40.32145,40.32145,0,0,1-.39712-5.26475c-.0293-.34742.05231-.55524.24432-.621Q479.32107,217.819,483.49738,217.59464Zm-4.73633,23.04391a21.29878,21.29878,0,0,1,.725,5.95374q-.009,3.37953.24225,6.59057.48363,6.27168.9672,12.54334,1.63664-.12461,3.27444-.227-.89026-14.05034-1.78058-28.10067a26.65731,26.65731,0,0,1-2.97616.16533,8.02571,8.02571,0,0,0-2.68131.39783,6.70483,6.70483,0,0,0,1.25275,1.28833A2.78866,2.78866,0,0,1,478.76105,240.63855Zm16.6174-3.74356c-.24289,4.5468-.25382,9.204-.06488,13.96825q.28147,7.14964.29651,14.1876,1.64038-.02381,3.281-.02557-.00672-6.29-.01336-12.58008-.0027-2.24725-.0933-4.56824-.09072-2.32-.05124-4.41792a16.17819,16.17819,0,0,1,.49366-3.81963,5.67615,5.67615,0,0,1,1.559-2.76557Q498.082,236.85752,495.37845,236.895Z" transform="translate(-198.5 -198.5)"/><path class="cls-2" d="M536.91345,219.70616a28.89387,28.89387,0,0,1-.6076,5.32123q-.57321,2.83415-.97412,5.53729a23.224,23.224,0,0,0-.24073,5.02947,6.6053,6.6053,0,0,0,1.42951,3.859,6.12529,6.12529,0,0,0-2.076,2.70351,18.09459,18.09459,0,0,0-1.11926,3.96943q-.38224,2.21631-.61756,4.67769-.23868,2.46138-.56109,4.91162-.86985,6.57084-1.73975,13.1417a241.04415,241.04415,0,0,0-24.18787-1.93042q.089-2.99428.17792-5.98862c.06607-.39652.393-.53787.97391-.419a3.1722,3.1722,0,0,0,1.37869.04962,22.75736,22.75736,0,0,1,.01923-4.833q.27086-2.57542.54861-5.18678.27882-2.61147.47165-5.1152a16.03677,16.03677,0,0,0-.26337-4.61957,3.32176,3.32176,0,0,0-.97186-1.90915,5.34619,5.34619,0,0,1-1.178-1.68677,2.49126,2.49126,0,0,1,1.11545-1.76181,3.38168,3.38168,0,0,0,1.31958-1.90042,8.59878,8.59878,0,0,0,.36789-2.19626,21.08221,21.08221,0,0,0-.04462-2.40015q-.09324-1.24092-.14-2.479a10.229,10.229,0,0,1,.19009-2.4281.71634.71634,0,0,0-.56768-.24622q-.3843-.01416-.81852.00922c-.28875.01569-.56237.01846-.81829.01059-.25638-.008-.41459-.08781-.47309-.239a13.54576,13.54576,0,0,0,.09561-3.21834,6.25746,6.25746,0,0,1,.38315-2.986Q522.48822,217.8226,536.91345,219.70616ZM511.026,251.29654q-.2574,5.498-.51489,10.99594-1.0789-.04994-2.15811-.09027-.05678,1.49643-.1135,2.993,10.16579.38045,20.28452,1.61179.76555-6.20651,1.53094-12.413.28418-2.30286.48041-4.61879.1962-2.31379.53485-4.34853a17.71582,17.71582,0,0,1,1.00208-3.68712,6.19069,6.19069,0,0,1,1.90094-2.62828q-2.821-.365-5.64808-.67053-.78552,6.31893-1.34161,12.66058c-.37634,4.22846-.93347,8.33516-1.6449,12.32634a46.54609,46.54609,0,0,0-5.83215-.55417,41.08646,41.08646,0,0,1-5.66827-.55435q.75567-12.48329,1.51147-24.96663-2.83731-.16953-5.677-.27963a6.19165,6.19165,0,0,1,1.43554,2.75745,14.90168,14.90168,0,0,1,.38138,3.46632q.00091,1.87412-.18524,3.92734Q511.11912,249.2772,511.026,251.29654Zm7.5748-26.34259q-1.24568,17.93-2.49109,35.86,3.96615.272,7.92395.67133,1.85028-18.10416,3.7005-36.2084-4.40222-.44429-8.81518-.75129c-.19178-.0133-.29065.03083-.29743.13022Q518.61128,224.80633,518.60077,224.954Z" transform="translate(-198.5 -198.5)"/><path class="cls-2" d="M545.89142,220.94781q4.28118.69628,8.54394,1.521-4.13542,21.13328-8.27111,42.2666,3.78982.7334,7.5592,1.58618c1.84259-6.80215,3.539-13.73919,5.04205-20.82382q2.25377-10.62552,4.75153-21.12011,4.19019.95116,8.356,2.02792a29.14289,29.14289,0,0,1-1.269,5.24281q-.928,2.77659-1.61438,5.424a25.79055,25.79055,0,0,0-.82318,5.01019,5.833,5.833,0,0,0,1.13593,4.01956,6.09183,6.09183,0,0,0-2.53644,2.38951,17.8914,17.8914,0,0,0-1.69141,3.77871q-.69864,2.14125-1.24359,4.59152-.55032,2.452-1.17261,4.84289-.90819,3.4797-1.71032,6.71494-.80174,3.23625-1.65753,6.1867-10.72926-2.77373-21.6474-4.53964,1.07784-6.578,2.15576-13.15585.55655-3.399,1.4317-6.82468a19.64858,19.64858,0,0,0,.69983-6.18368,3.41263,3.41263,0,0,0-.70026-1.93306,11.28915,11.28915,0,0,1-1.1-1.83856,5.34944,5.34944,0,0,0,2.53553-3.0134,24.65783,24.65783,0,0,0,1.26025-4.80376q.4368-2.66157.7124-5.53732a28.89694,28.89694,0,0,1,.96186-5.26938C545.52563,221.14168,545.62366,220.95491,545.89142,220.94781ZM544.178,243.668a21.26615,21.26615,0,0,1-.75574,5.95q-.8377,3.27531-1.381,6.45054-1.06842,6.19977-2.1366,12.3996,8.99607,1.53218,17.88043,3.74619,1.537-6.10158,3.07392-12.20322.54922-2.17983,1.03009-4.453.48064-2.27215,1.03418-4.29689a16.10641,16.10641,0,0,1,1.41833-3.58371,5.68658,5.68658,0,0,1,2.19849-2.30117q-2.72178-.69961-5.45545-1.34176-1.6494,6.154-2.95806,12.46344c-.87806,4.20584-1.93128,8.24093-3.13147,12.11383q-5.64066-1.319-11.33033-2.36753,2.32023-12.44343,4.64038-24.88685a26.757,26.757,0,0,1-2.93359-.56174,8.058,8.058,0,0,0-2.70288-.26433,6.66,6.66,0,0,0,.90112,1.55318A2.77839,2.77839,0,0,1,544.178,243.668Z" transform="translate(-198.5 -198.5)"/><path class="cls-2" d="M606.36279,237.68687q-2.0082,5.00735-4.01672,10.01474-3.919-1.5628-7.8761-3.002.69581-1.89981,1.39142-3.79958a20.87512,20.87512,0,0,0-4.09815-1.65313q-2.376-.70258-4.47027-1.4645-1.54908,4.69606-3.09815,9.39208a14.22451,14.22451,0,0,0,3.6034,1.60306q2.146.65922,4.36712,1.26336,2.22025.60649,4.31018,1.32215a12.01352,12.01352,0,0,1,3.40479,1.72862,1.98651,1.98651,0,0,1,.83441.93892,5.86267,5.86267,0,0,1,.283,1.04384q.09036.52047.17792,1.04277a1.69509,1.69509,0,0,0,.51788.94073,5.05494,5.05494,0,0,1-2.13769,1.31238,4.13928,4.13928,0,0,0-2.03547,1.36313,12.35846,12.35846,0,0,0-1.46575,2.56143q-.62815,1.44425-1.16706,3.0441-.54437,1.59759-1.08911,3.317-.545,1.71858-1.15955,3.24807-2.41287,6.01593-4.82574,12.03186Q577.483,279.81636,566.861,276.6972q1.58707-5.3512,3.17426-10.70233,3.62018,1.06427,7.21252,2.2399-.669,2.02794-1.33789,4.05579a13.32208,13.32208,0,0,0,3.58057,1.401,22.79046,22.79046,0,0,1,3.87445,1.3331q3.40109-9.28747,6.80218-18.57489-7.68393-2.79486-15.5025-5.10106a3.52932,3.52932,0,0,1-.93579-1.99045,4.69885,4.69885,0,0,0-.8258-2.10736c.57684-.45888,1.16314-.92735,1.7536-1.40659q.884-.71942,1.79077-1.46864,2.20486-7.43385,4.40967-14.8677.08523-.28706.17034-.57416Q593.85615,232.70549,606.36279,237.68687Zm-30.329,11.95763q8.57107,2.55849,16.989,5.70125-4.17993,11.11644-8.36,22.23286a51.82823,51.82823,0,0,0-5.87768-2.10965,44.33977,44.33977,0,0,1-5.55768-1.99606q.67363-2.105,1.347-4.20993-1.5434-.48986-3.0921-.95908-1.0838,3.54643-2.16754,7.09272,8.69715,2.63524,17.21472,5.94015,2.22226-5.68826,4.44458-11.3764.90024-2.30328,1.68884-4.56873a44.43386,44.43386,0,0,1,1.677-4.17187,17.50866,17.50866,0,0,1,1.98919-3.32663,5.36508,5.36508,0,0,1,2.69751-1.91542q-11.63625-4.64061-23.60187-8.15416a2.33679,2.33679,0,0,0,.24091.9695A7.20424,7.20424,0,0,1,576.03381,249.6445Z" transform="translate(-198.5 -198.5)"/><path class="cls-2" d="M637.23651,252.19807q-1.58083,2.894-3.16156,5.788-3.7564-2.04927-7.5628-3.97595-.95664,1.44772-1.93671,3.17685a24.24346,24.24346,0,0,0-1.62476,3.42,13.38475,13.38475,0,0,0-.81756,3.28272,4.60769,4.60769,0,0,0,.60931,2.92413q-1.03207.56332-2.01892,1.068-.99069.50286-2.0061,1.08182-5.96064,11.76641-11.92108,23.5329-3.3328-1.68433-6.70813-3.25738,2.82631-6.04116,5.65246-12.08222,1.39672-2.98626,3.17407-6.04425a19.44854,19.44854,0,0,0,2.35169-5.76712,4.25718,4.25718,0,0,0-.19885-2.19806,8.56156,8.56156,0,0,1-.47626-2.07345,4.9758,4.9758,0,0,0,2.55987-1.42194,12.92217,12.92217,0,0,0,1.9618-2.64151,35.25249,35.25249,0,0,0,1.65942-3.31957q.77976-1.786,1.57568-3.48255a20.80233,20.80233,0,0,0-3.92083-1.9963q-2.27572-.89378-4.30677-1.84037a15.02193,15.02193,0,0,0,1.34449-3.13335,7.11562,7.11562,0,0,1,1.53039-2.80937Q625.33437,245.71327,637.23651,252.19807Zm-29.1604,24.73348q-2.71307,5.68025-5.4259,11.36041,1.5075.71765,3.00689,1.4574,5.5503-11.217,11.10065-22.434.86189-.49356,1.738-.89523a12.11742,12.11742,0,0,0,1.66516-.92524q-3.54775-1.78811-7.13788-3.46447a6.69394,6.69394,0,0,1,.17816,3.31448,15.95548,15.95548,0,0,1-1.17486,3.6315q-.85017,1.88-1.91614,3.90225Q609.04373,274.90381,608.07611,276.93155Z" transform="translate(-198.5 -198.5)"/><path class="cls-2" d="M665.67719,269.97534q-6.60727,9.325-13.21454,18.65c-.1153.16284-.24018.22839-.36957.19668a1.42948,1.42948,0,0,1-.46552-.23746,5.54928,5.54928,0,0,1-.51556-.41,1.63662,1.63662,0,0,0-.52136-.31894q-7.5879,10.87991-15.17578,21.75977-3.0435-2.12856-6.13977-4.15094,7.20519-11.0484,14.41033-22.09683a8.92343,8.92343,0,0,0-2.58477-1.93326,32.855,32.855,0,0,1-3.07984-1.83957q-6.95809,11.29384-13.91626,22.58758-3.20865-1.97841-6.46747-3.84576,3.355-5.85168,6.71-11.70337a67.10391,67.10391,0,0,1,3.78082-5.86587,17.35488,17.35488,0,0,0,2.81689-5.64164,3.11671,3.11671,0,0,0-.03143-1.91626,5.1447,5.1447,0,0,1-.24341-1.94622,10.94463,10.94463,0,0,1,1.71765-.83689,12.06664,12.06664,0,0,0,1.72577-.82715q4.00745-6.98959,8.01483-13.97909c.17328-.30274.36139-.426.561-.36884Q654.45846,262.013,665.67719,269.97534Zm-32.61365,5.94312a16.67121,16.67121,0,0,1-1.17841,2.65332q-.73883,1.34958-1.5921,2.71582-.85511,1.36784-1.82257,2.75409-.967,1.38734-1.76135,2.747-3.177,5.43471-6.354,10.86941,1.454.84979,2.8982,1.72186,6.874-11.38915,13.74816-22.77828,4.93287,2.97866,9.75855,6.18978-7.36056,11.08046-14.72131,22.161,1.34171.89315,2.67364,1.80622,7.46622-10.9184,14.93256-21.8367a4.36078,4.36078,0,0,1,.68554.335,7.76137,7.76137,0,0,0,.76325.39163.75228.75228,0,0,0,.59766.05042c.16412-.0691.28179-.321.35449-.75837a47.12526,47.12526,0,0,0-4.21772-3.3283q-2.36662-1.66626-4.89874-3.23325-2.53362-1.5645-5.09338-3.0683-2.56083-1.50078-4.80554-2.87677a3.0137,3.0137,0,0,0,.02075,1.74344A2.96156,2.96156,0,0,1,633.06354,275.91846Zm13.72381-10.55268q-2.65356,4.307-5.30706,8.614,3.77655,2.32845,7.4898,4.79214,2.79328-4.2177,5.58631-8.43533Q650.70523,267.7811,646.78735,265.36578Z" transform="translate(-198.5 -198.5)"/><path class="cls-2" d="M656.53668,288.13974l.08783-.121a6.51143,6.51143,0,0,1,2.25641-.57611,3.64137,3.64137,0,0,0,2.30365-1.09244,18.26016,18.26016,0,0,0,2.33887-2.7435q1.11877-1.59422,2.23-3.33752,1.10586-1.74436,2.22931-3.43162a17.34423,17.34423,0,0,1,2.4378-2.95031,41.34685,41.34685,0,0,0,3.71924,2.81445,15.64182,15.64182,0,0,1,3.22192,2.80408,17.47841,17.47841,0,0,1-2.21093,3.12463q-1.33686,1.52229-2.7074,3.01734-1.37247,1.49354-2.65515,2.96292A12.80055,12.80055,0,0,0,667.79,291.617a3.83078,3.83078,0,0,0-.31439,2.57721,3.80669,3.80669,0,0,1-.09943,2.27738,8.53144,8.53144,0,0,1-2.28937.56058,4.60881,4.60881,0,0,0-2.22168.8164,21.91974,21.91974,0,0,0-4.05029,4.67767q-1.89468,2.85032-3.98785,5.49308-4.04206,5.11451-8.08417,10.229a21.95234,21.95234,0,0,0-2.9831-2.32953,12.59329,12.59329,0,0,1-2.74261-2.35473q3.81463-5.14761,7.62946-10.29511,2.00893-2.70992,4.38464-5.37741a18.67666,18.67666,0,0,0,3.42395-5.15951,3.46283,3.46283,0,0,0,.20831-2.26917A6.87459,6.87459,0,0,1,656.53668,288.13974Zm-5.47784,15.346q-3.72171,4.93694-7.44336,9.87393,1.29584.98072,2.58105,1.98154,7.64493-9.86023,15.2898-19.72049a16.51957,16.51957,0,0,1,1.87872-.48065,8.8928,8.8928,0,0,0,1.85883-.58558q-3.194-2.5323-6.44879-4.953a6.61421,6.61421,0,0,1-.34235,3.39566,15.54324,15.54324,0,0,1-1.81226,3.42011,42.32805,42.32805,0,0,1-2.67816,3.471Q652.45624,301.63083,651.05884,303.48578Z" transform="translate(-198.5 -198.5)"/><path class="cls-2" d="M705.76593,304.60928q-3.89823,3.7809-7.79681,7.56186-3.07206-3.187-6.22242-6.25326,1.43217-1.48046,2.86445-2.96091a17.86754,17.86754,0,0,0-3.13666-3.31531q-1.92819-1.61-3.608-3.23993a15.78018,15.78018,0,0,0-3.46473,3.38105,32.22681,32.22681,0,0,1-3.38867,3.75387q2.69285,2.44511,5.33313,4.976-2.248,2.35968-4.49621,4.71933-2.47211-2.3697-4.99158-4.66241a72.28442,72.28442,0,0,0-6.865,7.1745q-3.3024,3.93384-6.7525,7.48022,3.1191,2.8322,6.15991,5.7919,1.5369-1.58862,3.07367-3.17718,2.83456,2.7594,5.59985,5.62756-3.95242,3.83327-7.90478,7.6666-8.17044-8.47632-16.96741-15.959,4.23834-5.00239,8.47662-10.00485,1.59824-1.88676,3.27814-3.65363a38.88862,38.88862,0,0,0,3.00537-3.54333,19.06609,19.06609,0,0,0,2.10773-3.51791,5.93972,5.93972,0,0,0,.44592-3.59208,10.06767,10.06767,0,0,1,2.06531-.66357q1.0708-.22293,2.12646-.40732,5.10993-6.03126,10.22-12.0625l.33918-.40036Q695.87942,294.3687,705.76593,304.60928Zm-33.5802-.58874a16.9339,16.9339,0,0,1-3.61511,4.69983q-2.45023,2.33683-4.59741,4.83893-4.082,4.74119-8.16407,9.48248,7.23158,6.261,14.05378,13.19751,2.63671-2.60659,5.27355-5.21323-1.27166-1.29427-2.55792-2.56573-1.54861,1.57635-3.09717,3.15274-4.453-4.4019-9.07971-8.52518,3.94016-4.31547,7.808-8.94827a99.299,99.299,0,0,1,7.94122-8.52835,6.82227,6.82227,0,0,1,1.49493,1.295c.59479.6391,1.18549,1.23157,1.77814,1.77954a7.51407,7.51407,0,0,0,1.6051,1.187c.47931.2435.82978.05973,1.05048-.55615a16.67119,16.67119,0,0,0-1.919-2.2959q-1.132-1.14071-2.42065-2.24914Q676.45,303.665,675.05328,302.543a26.42779,26.42779,0,0,1-2.47668-2.23618,2.98264,2.98264,0,0,0-.22644,1.82746A3.6551,3.6551,0,0,1,672.18573,304.02054Z" transform="translate(-198.5 -198.5)"/><path class="cls-2" d="M729.45825,332.3688q-4.31415,3.23383-8.62835,6.4676-2.77287-3.70364-5.63746-7.28345,1.57673-1.266,3.15351-2.5318a24.42951,24.42951,0,0,0-2.88446-3.8414q-1.799-1.9965-3.31256-3.87122-3.74314,3.2282-7.48645,6.45639a16.74674,16.74674,0,0,0,2.45922,3.49036q1.61188,1.82313,3.322,3.653,1.707,1.83045,3.24366,3.69256a14.28961,14.28961,0,0,1,2.22326,3.53641,2.2709,2.2709,0,0,1,.28839,1.3244,5.98444,5.98444,0,0,1-.26342,1.09091q-.17716.514-.35816,1.02777a1.83959,1.83959,0,0,0,.001,1.14041,5.09084,5.09084,0,0,1-2.59113-.111,4.11943,4.11943,0,0,0-2.52362-.00317,11.31819,11.31819,0,0,0-2.60406,1.39444q-1.28869.90348-2.57392,1.9978-1.28923,1.08917-2.63916,2.28513-1.34967,1.19513-2.6687,2.18249-5.18307,3.88509-10.36621,7.77027-7.30856-9.76245-15.34485-18.52448,4.10467-3.78044,8.20917-7.56088,2.73789,2.98987,5.39942,6.09091-1.61646,1.394-3.23291,2.78806a15.72236,15.72236,0,0,0,2.53942,3.30035,26.5851,26.5851,0,0,1,2.84162,3.429q7.70836-6.18861,15.41668-12.3772-5.56246-6.9522-11.47235-13.41587a3.65392,3.65392,0,0,1,.14869-2.27337,4.78861,4.78861,0,0,0,.3067-2.31125q1.12509-.11133,2.28534-.23611,1.15677-.128,2.35015-.26783,5.702-5.25174,11.40412-10.50357l.44043-.40564Q720.60523,320.564,729.45825,332.3688Zm-33.4032-7.11444q6.46435,7.122,12.52076,14.82825-9.3252,7.3434-18.65039,14.6868a59.52571,59.52571,0,0,0-4.26807-5.28586,53.27243,53.27243,0,0,1-4.02979-4.95865q1.659-1.459,3.31806-2.918-1.15072-1.3152-2.31531-2.60983-2.74905,2.48716-5.49811,4.9744,6.54117,7.27069,12.61115,15.21093,4.84707-3.70848,9.69439-7.417,1.96326-1.50152,3.80622-3.03534a40.62869,40.62869,0,0,1,3.59778-2.692,16.06938,16.06938,0,0,1,3.45941-1.76166,5.32067,5.32067,0,0,1,3.39831-.09531q-8.23287-10.997-17.28546-20.86722a2.32858,2.32858,0,0,0-.26642.98551A7.49259,7.49259,0,0,1,696.05505,325.25436Z" transform="translate(-198.5 -198.5)"/><circle class="cls-1" cx="41.5" cy="301.5" r="15"/><circle class="cls-1" cx="57.17992" cy="390.42524" r="15"/><circle class="cls-1" cx="102.32844" cy="468.62478" r="15"/><circle class="cls-1" cx="171.5" cy="526.6666" r="15"/><circle class="cls-1" cx="431.5" cy="526.6666" r="15"/><circle class="cls-1" cx="500.67156" cy="468.62478" r="15"/><circle class="cls-1" cx="545.82008" cy="390.42524" r="15"/><circle class="cls-1" cx="561.5" cy="301.5" r="15"/><circle class="cls-1" cx="545.82008" cy="212.57476" r="15"/><circle class="cls-1" cx="57.17992" cy="212.57476" r="15"/><polygon class="cls-1" points="241.517 570.704 243.908 560.083 236.849 552.155 247.302 551.074 252.501 541.551 256.57 551.504 266.842 553.546 258.904 560.779 260.054 571.564 251.079 566.081 241.517 570.704"/><polygon class="cls-1" points="341.342 570.191 343.735 559.913 336.486 552.201 347.16 551.202 352.428 542.001 356.632 551.662 367.136 553.688 359.06 560.657 360.285 571.111 351.089 565.757 341.342 570.191"/></g><g id="Calque_6" data-name="Calque 6"><path class="cls-3" d="M403.87159,514.0591c-4.39178,2.98825-16.17,12.48887-15.31915,13.7872.55746.85059,5.85-2.86553,8.85107-.851,2.40769,1.61615,2.19156,6.14954,1.3617,11.74463-1.833,12.3584-5.1568,19.75983-7.31915,27.06384-1.99073,6.72431-2.46189,12.25592-3.40424,23.31916-1.20648,14.16443.45282,13.19677.51062,42.89361a71.87089,71.87089,0,0,0,1.02127,13.95746,75.74129,75.74129,0,0,0,6.12769,18.21277c11.67715,23.03339,179.63574,40.04736,190.6383-.68085.5744-2.12622.05817-1.95611-2.383-22.12768,0-.00013-3.13825-25.93189-4.93616-50.55317-2.24079-30.68664-.05377-29.33459-1.70215-35.57446C563.96061,504.68539,439.8122,489.60448,403.87159,514.0591Z" transform="translate(-198.5 -198.5)"/></g><g id="Calque_5" data-name="Calque 5"><path class="cls-3" d="M434.16947,422.99526c.25968-4.88956,10.30079-19.94055,30.383-50.04254.00006-.00009,12.213-18.30655,35.234-42.89362,6.76849-7.22891,11.44977-11.70434,18.95746-14.242,13.98608-4.72745,27.31384.74887,34.65954,3.77392,6.6706,2.747,21.16382,8.71552,29.44232,23.20255,4.0293,7.05109,4.18158,11.912,6.51673,40.0947,3.0592,36.922,2.4259,24.09063,3.0758,35.53607,3.05408,53.78558,4.63153,80.7261.53968,84.99649C565.66142,531.9295,431.56327,472.07088,434.16947,422.99526Z" transform="translate(-198.5 -198.5)"/><path class="cls-3" d="M457.91416,383.67611q-4.59576,6.766-9.19149,13.53192a279.50312,279.50312,0,0,1,146.22812,68.6731q-.59336-11.92938-1.18665-23.85871a284.08235,284.08235,0,0,0-135.85-58.34631Z" transform="translate(-198.5 -198.5)"/><path class="cls-3" d="M444.09248,403.98681q-3.42962,6.6957-6.85919,13.39145A303.15047,303.15047,0,0,1,595.02055,492.0591q.12762-8.617.25531-17.234a235.88716,235.88716,0,0,0-151.18338-70.83825Z" transform="translate(-198.5 -198.5)"/><path class="cls-2" d="M682.68009,403.08037" transform="translate(-198.5 -198.5)"/></g><g id="Calque_4" data-name="Calque 4"><path class="cls-3" d="M291.44606,437.0378c1.43264-11.56079,8.19869-18.914,11.234-22.21274a48.90728,48.90728,0,0,1,20.42554-13.0213c8.183-2.90561,14.69235-3.005,24-3.06381,12.74939-.08057,22.3259,1.76978,31.40427,3.57446a248.9779,248.9779,0,0,1,30.12765,8.17023,311.25661,311.25661,0,0,1,31.91489,12c10.3266,4.56958,11.428,5.78165,32.93619,16.851,9.97119,5.13175,17.88147,9.03818,33.70208,16.85108,16.02271,7.91269,27.96106,13.66791,38.80854,18.89361,18.57177,8.94687,27.85766,13.42032,36,17.10639,19.63617,8.8894,29.72308,13.41974,42.89361,17.617,12.76648,4.06848,23.40937,7.38623,38.04254,8.42554a128.06119,128.06119,0,0,0,33.44684-2.04254,22.61641,22.61641,0,0,1,0,4.59573,25.64435,25.64435,0,0,1-5.36169,12.766c-7.543,10.31275-20.9361,16.3404-20.93616,16.34046-18.562,8.35394-36.23175,10.034-45.95746,10.72339a344.84789,344.84789,0,0,1-54.6383-.51062,619.94741,619.94741,0,0,1-78.63831-12c-31.30316-6.78894-53.08365-13.85718-81.1915-22.97876a592.89682,592.89682,0,0,1-61.27658-24,188.72907,188.72907,0,0,1-39.57446-26.04255c-4.8241-4.133-10.61646-9.57449-14.29788-18.383A37.841,37.841,0,0,1,291.44606,437.0378Z" transform="translate(-198.5 -198.5)"/><path class="cls-3" d="M379.02052,444.44207" transform="translate(-198.5 -198.5)"/><path class="cls-3" d="M315.95671,445.208" transform="translate(-198.5 -198.5)"/><path class="cls-2" d="M318.42478,471.50591a82.52769,82.52769,0,0,1,22.46808-13.95746c22.262-8.87405,43.93329-2.02014,58.87647,2.93467,28.11557,9.32244,30.01907,18.90689,67.76184,38.59725,16.449,8.58146,28.41254,13.19095,50.72339,21.78724,21.04394,8.10815,47.34363,18.11975,82.86316,25.84918a376.72166,376.72166,0,0,0,37.64752,6.49127,523.86884,523.86884,0,0,1-79.18463-16.913c-20.10053-5.98523-38.02069-12.78763-42.68775-14.57642-7.22857-2.77057-17.14123-6.58878-29.95746-12.42554-15.76763-7.1809-30.32348-13.74511-44.93615-23.48938-2.29618-1.53115-6.81537-4.62143-13.617-8.851-7.68216-4.77716-12.28341-7.63849-17.39474-10.21567a113.0388,113.0388,0,0,0-36.701-10.87387c-7.87976-1.08417-13.79965-1.89868-21.64893-.35727-6.70874,1.31742-11.87558,3.77628-17.53192,6.46808A127.74188,127.74188,0,0,0,318.42478,471.50591Z" transform="translate(-198.5 -198.5)"/></g><g id="Calque_3" data-name="Calque 3"><path class="cls-3" d="M466.595,573.63354c-.34143-3.34278,11.35895-6.91761,13.78723-7.65955,7.65082-2.33758,20.12622-4.30615,21.44678-1.0213,1.14044,2.83691-6.05469,9.55359-14.03925,12.009C478.14848,579.92651,466.91972,576.81231,466.595,573.63354Z" transform="translate(-198.5 -198.5)"/><path class="cls-3" d="M408.38224,558.56975c.75562-1.03173,4.08847-.27636,10.72339,1.27655,6.70267,1.56879,7.726,2.36506,8.42554,3.31916,1.91275,2.60864,1.88434,7.05017-.25531,8.93622-3.14139,2.7691-9.71451-.95667-12.51065-3.06385C410.55921,565.86816,407.02336,560.42528,408.38224,558.56975Z" transform="translate(-198.5 -198.5)"/><path class="cls-3" d="M509.74394,482.2293q6.6383-4.08509,13.27661-8.1702h0q.25535,7.40424.51062,14.80851Q516.63751,485.54846,509.74394,482.2293Z" transform="translate(-198.5 -198.5)"/><path class="cls-3" d="M528.89286,477.63357q.383,7.02126.766,14.04254l12.51062-5.87235Z" transform="translate(-198.5 -198.5)"/><path class="cls-3" d="M547.53117,487.84634l-12,7.65957,14.04254,6.89362Q548.55244,495.12291,547.53117,487.84634Z" transform="translate(-198.5 -198.5)"/><path class="cls-3" d="M554.68009,491.4208q6.76593,2.93619,13.53193,5.87234-5.87238,3.8298-11.74469,7.65958Q555.57368,498.18675,554.68009,491.4208Z" transform="translate(-198.5 -198.5)"/><path class="cls-3" d="M574.595,499.84634l-13.27661,7.40423,15.82977,7.91492Q575.87156,507.50591,574.595,499.84634Z" transform="translate(-198.5 -198.5)"/><path class="cls-3" d="M580.46733,502.39953q7.65957,3.44682,15.31915,6.89361-6.25534,4.08508-12.51062,8.1702Q581.87162,509.93143,580.46733,502.39953Z" transform="translate(-198.5 -198.5)"/><path class="cls-3" d="M600.63755,511.84634q-6,3.44682-12,6.89361l15.31916,8.42551Z" transform="translate(-198.5 -198.5)"/><path class="cls-3" d="M607.78648,513.63357q1.02127,7.02126,2.04254,14.04257,6.383-3.5745,12.766-7.149Q615.19077,517.08036,607.78648,513.63357Z" transform="translate(-198.5 -198.5)"/><path class="cls-3" d="M627.19071,521.80376q-6.25533,3.95746-12.51062,7.91492,8.17026,2.93619,16.34046,5.87231Q629.10563,528.69735,627.19071,521.80376Z" transform="translate(-198.5 -198.5)"/><path class="cls-3" d="M633.57371,524.10165q2.17026,6.63825,4.34045,13.27658,5.87238-4.34043,11.74469-8.68085Q641.61632,526.3995,633.57371,524.10165Z" transform="translate(-198.5 -198.5)"/><path class="cls-3" d="M653.74394,530.48461l-9.19147,8.42554q8.29788,1.40422,16.5957,2.80853Z" transform="translate(-198.5 -198.5)"/><path class="cls-3" d="M660.63755,532.27184q3.19153,6,6.383,12,4.468-6.25533,8.93616-12.51062Q668.29713,532.01657,660.63755,532.27184Z" transform="translate(-198.5 -198.5)"/><path class="cls-3" d="M300.1269,430.39953l4.59577,11.74466q4.46809-4.85106,8.93615-9.70212Z" transform="translate(-198.5 -198.5)"/><path class="cls-3" d="M305.99925,423.76122l12.51065,4.34043q1.40424-6.63831,2.8085-13.27659Q313.65883,419.29315,305.99925,423.76122Z" transform="translate(-198.5 -198.5)"/><path class="cls-3" d="M502.595,465.88888q.51058,7.14894,1.02124,14.29788l13.0213-7.91489Q509.61629,469.0804,502.595,465.88888Z" transform="translate(-198.5 -198.5)"/><path class="cls-3" d="M496.212,462.0591q-6.12763,3.70212-12.25531,7.40424l13.53192,6.63831Z" transform="translate(-198.5 -198.5)"/><path class="cls-3" d="M476.55247,453.12292q.89364,6.51063,1.78723,13.02127l13.78723-6.63828Z" transform="translate(-198.5 -198.5)"/><path class="cls-3" d="M470.16947,448.78249q-6.25533,3.82979-12.51062,7.65958,6.89366,3.57444,13.78724,7.14892Z" transform="translate(-198.5 -198.5)"/><path class="cls-3" d="M450.25459,439.33568q1.02126,6.89361,2.04251,13.78724,5.617-3.31916,11.23407-6.63828Q456.89286,442.91016,450.25459,439.33568Z" transform="translate(-198.5 -198.5)"/><path class="cls-3" d="M430.85032,445.71868q6.12766-4.59576,12.25531-9.1915,1.5319,7.14894,3.06384,14.29788Q438.5099,448.2719,430.85032,445.71868Z" transform="translate(-198.5 -198.5)"/><path class="cls-3" d="M422.93543,428.6123l3.31916,14.04254q5.87232-4.08508,11.74466-8.1702Q430.46735,431.54845,422.93543,428.6123Z" transform="translate(-198.5 -198.5)"/><path class="cls-3" d="M416.29713,425.29314q-6.12766,4.59578-12.25531,9.1915,7.65957,2.80852,15.31915,5.617Q417.82907,432.69741,416.29713,425.29314Z" transform="translate(-198.5 -198.5)"/><path class="cls-3" d="M395.10563,419.16549q1.91492,6.63831,3.8298,13.27658,5.36171-4.21275,10.72339-8.42554Q402.38222,421.591,395.10563,419.16549Z" transform="translate(-198.5 -198.5)"/><path class="cls-3" d="M387.95671,416.86761q-5.1064,4.72338-10.21277,9.4468,7.78723,2.42556,15.57446,4.85108Z" transform="translate(-198.5 -198.5)"/><path class="cls-3" d="M382.85032,415.591l-9.95746,9.95746q-3.31915-6.383-6.63827-12.766Q374.55247,414.18673,382.85032,415.591Z" transform="translate(-198.5 -198.5)"/><path class="cls-3" d="M359.10563,411.50591q-4.97873,6.2553-9.95743,12.51062,7.78725.25535,15.57447.51065Z" transform="translate(-198.5 -198.5)"/><path class="cls-3" d="M335.61628,411.25057q4.21275,5.48937,8.42554,10.97873L353.48863,410.74Z" transform="translate(-198.5 -198.5)"/><path class="cls-3" d="M327.19074,414.31441q-1.91487,7.02127-3.82977,14.04255,7.27657-2.29789,14.55316-4.59574Q332.55244,419.03784,327.19074,414.31441Z" transform="translate(-198.5 -198.5)"/></g><g id="Calque_7" data-name="Calque 7"><path class="cls-3" d="M418.68009,636.10168c.2743.76538,1.87592.49279,13.47687-.02253.00009,0,1.76993-.07861,12.7359-.48816,18.05487-.67425,25.0611,2.0387,25.70215.17023,1.0257-2.98968-11.73645-13.43121-26.21277-13.27661C430.05787,622.63756,417.61427,633.12737,418.68009,636.10168Z" transform="translate(-198.5 -198.5)"/><path class="cls-2" d="M457.14817,663.33568" transform="translate(-198.5 -198.5)"/><path class="cls-2" d="M444.212,631.50591a18.59323,18.59323,0,0,1,11.56286,4.0661q-5.28771-.07983-10.882.019-6.579.12232-12.7359.48816A18.653,18.653,0,0,1,444.212,631.50591Z" transform="translate(-198.5 -198.5)"/><path class="cls-3" d="M424.63755,587.93145c.94089-1.17871,2.997-.78449,13.78723,2.04254,12.77,3.3457,14.58869,4.271,14.63831,5.44678.05139,1.21686-2.51895,2.45666-7.65958,4.93622-4.7839,2.30749-7.24548,3.40619-9.53192,3.06378-4.01632-.60144-6.48388-3.919-8-5.9574C427.52937,597.00323,422.68156,590.38189,424.63755,587.93145Z" transform="translate(-198.5 -198.5)"/></g><g id="Calque_2" data-name="Calque 2"><path class="cls-3" d="M446.42712,615.571c-.90933-4.04083-5.54746-5.815-9.70215-7.40424-4.078-1.55993-11.592-4.4342-19.40424-1.0213-5.58953,2.4419-8.5166,6.87238-10.72342,10.21277-3.04449,4.60834-2.85421,6.62354-5.617,13.53192-3.7616,9.40589-7.91385,19.7887-14.42728,20.45764-4.6918.48182-8.74655-4.26782-9.05151-4.63446-.00006-.00006-1.59253-1.91455-4.351-11.9934h0a37.11325,37.11325,0,0,0-3.31916,8.42553,16.18026,16.18026,0,0,0,3.39081,12.76343c4.8508,6.04016,12.312,6.13464,13.46027,6.13019,7.54867-.02948,12.77-5.16748,16.34042-8.68085,6.309-6.20831,4.29444-8.3797,10.72342-15.31915,4.1106-4.437,9.50339-10.258,17.617-11.74469,5.24691-.96143,8.4396.47467,11.74469-2.29785C445.37686,622.09324,447.128,618.68534,446.42712,615.571Z" transform="translate(-198.5 -198.5)"/><path class="cls-3" d="M440.25469,615.1874c.90933-4.04083,5.54746-5.815,9.70215-7.40423,4.078-1.55994,11.592-4.43421,19.40424-1.02131,5.58953,2.4419,8.5166,6.87238,10.72341,10.21277,3.0445,4.60834,2.85422,6.62354,5.617,13.53192,3.7616,9.40589,7.91385,19.7887,14.42728,20.45765,4.6918.48181,8.74655-4.26783,9.05151-4.63446.00006-.00007,1.59253-1.91456,4.351-11.99341h0a37.11325,37.11325,0,0,1,3.31916,8.42553,16.18026,16.18026,0,0,1-3.39081,12.76343c-4.8508,6.04016-12.312,6.13465-13.46027,6.13019-7.54867-.02948-12.77-5.16748-16.34042-8.68085-6.309-6.20831-4.29444-8.3797-10.72342-15.31915-4.1106-4.437-9.50339-10.258-17.617-11.74469-5.24691-.96143-8.4396.47467-11.74469-2.29785C441.305,621.70968,439.55382,618.30178,440.25469,615.1874Z" transform="translate(-198.5 -198.5)"/></g></svg>